<?xml version="1.0" standalone="no"?>
<!DOCTYPE svg PUBLIC "-//W3C//DTD SVG 1.1//EN" "http://www.w3.org/Graphics/SVG/1.1/DTD/svg11.dtd" >
<svg xmlns="http://www.w3.org/2000/svg">
<metadata>
Created by FontForge 20120731 at Thu Jul 13 15:37:01 2017
 By admin
</metadata>
<defs>
<font id="iconfont" horiz-adv-x="1024" >
  <font-face 
    font-family="iconfont"
    font-weight="500"
    font-stretch="normal"
    units-per-em="1024"
    panose-1="2 0 6 3 0 0 0 0 0 0"
    ascent="896"
    descent="-128"
    x-height="792"
    bbox="0 -128.059 1243 896.059"
    underline-thickness="0"
    underline-position="0"
    unicode-range="U+0078-E65C"
  />
<missing-glyph 
 />
    <glyph glyph-name=".notdef" 
 />
    <glyph glyph-name=".notdef" 
 />
    <glyph glyph-name=".null" horiz-adv-x="0" 
 />
    <glyph glyph-name="nonmarkingreturn" horiz-adv-x="341" 
 />
    <glyph glyph-name="x" unicode="x" horiz-adv-x="1001" 
d="M281 543q-27 -1 -53 -1h-83q-18 0 -36.5 -6t-32.5 -18.5t-23 -32t-9 -45.5v-76h912v41q0 16 -0.5 30t-0.5 18q0 13 -5 29t-17 29.5t-31.5 22.5t-49.5 9h-133v-97h-438v97zM955 310v-52q0 -23 0.5 -52t0.5 -58t-10.5 -47.5t-26 -30t-33 -16t-31.5 -4.5q-14 -1 -29.5 -0.5
t-29.5 0.5h-32l-45 128h-439l-44 -128h-29h-34q-20 0 -45 1q-25 0 -41 9.5t-25.5 23t-13.5 29.5t-4 30v167h911zM163 247q-12 0 -21 -8.5t-9 -21.5t9 -21.5t21 -8.5q13 0 22 8.5t9 21.5t-9 21.5t-22 8.5zM316 123q-8 -26 -14 -48q-5 -19 -10.5 -37t-7.5 -25t-3 -15t1 -14.5
t9.5 -10.5t21.5 -4h37h67h81h80h64h36q23 0 34 12t2 38q-5 13 -9.5 30.5t-9.5 34.5q-5 19 -11 39h-368zM336 498v228q0 11 2.5 23t10 21.5t20.5 15.5t34 6h188q31 0 51.5 -14.5t20.5 -52.5v-227h-327z" />
    <glyph glyph-name="shipin" unicode="&#xe600;" horiz-adv-x="1000" 
d="M950 619q0 5 0.5 13.5t0.5 11.5t-1 8.5t-2.5 7t-5 3.5t-9 2.5t-13.5 0.5q-239 -184 -260 -209v181q0 15 -10.5 25.5t-25.5 10.5h-508q-15 0 -25.5 -10.5t-10.5 -25.5v-436q0 -15 10.5 -25.5t25.5 -10.5h508q15 0 25.5 10.5t10.5 25.5v178q21 -21 260 -210h13t9 2t5.5 3
t2.5 6t1 7.5t-0.5 11t-0.5 13.5v406z" />
    <glyph glyph-name="caidan" unicode="&#xe60c;" horiz-adv-x="1152" 
d="M979 710q0 -19 -11 -33t-27 -14h-764q-15 0 -26 14t-11 33v0q0 18 11 32t26 14h764q16 0 27 -14t11 -32v0zM979 384q0 -19 -11 -33t-27 -14h-764q-15 0 -26 14t-11 33v0q0 19 11 33t26 14h764q16 0 27 -14t11 -33v0zM979 58q0 -18 -11 -32t-27 -14h-764q-15 0 -26 14
t-11 32v0q0 19 11 33t26 14h764q16 0 27 -14t11 -33v0z" />
    <glyph glyph-name="back" unicode="&#xe62e;" 
d="M672 -16q-20 0 -34 14l-352 352q-14 14 -14 34t14 34l352 352q14 14 34 14t34 -14t14 -34t-14 -34l-318 -318l318 -318q14 -14 14 -34t-14 -34t-34 -14z" />
    <glyph glyph-name="dingshirenwu" unicode="&#xe601;" 
d="M889 476l-26 -26q-32 71 -89.5 124t-131.5 79l35 35q1 1 4 3t3 3v15q0 24 -17 41t-41 17h-228q-24 0 -41 -17t-17 -41v-15q0 -1 2.5 -3t4.5 -3l35 -35q-74 -26 -131.5 -79t-89.5 -124l-26 26q-30 30 -30 72.5t30 72.5l67 67q28 28 68 30q3 50 40 85t88 35h228
q51 0 88 -35t40 -85q40 -2 68 -30l67 -67q30 -30 30 -72.5t-30 -72.5zM872 290q0 -122 -75 -219l62 -62q13 -14 13 -33t-13.5 -32.5t-32.5 -13.5t-32 14l-62 62q-98 -76 -220 -76t-220 76l-62 -62q-13 -14 -32 -14t-32.5 13.5t-13.5 32.5t13 33l62 62q-75 97 -75 219
q0 98 48 181t131 131t181 48t181 -48t131 -131t48 -181zM512 22q111 0 189.5 78.5t78.5 189.5t-78.5 189.5t-189.5 78.5t-189.5 -78.5t-78.5 -189.5t78.5 -189.5t189.5 -78.5zM664 443q-6 6 -13 1v0l-127 -87l22 -15v0l2 -1v0q5 -3 8 -7q16 -16 18 -39l92 134v0q5 7 -2 14z
M540 329v0l-1 2v0l-166 113v0q-7 5 -13.5 -1t-1.5 -14v0l113 -165l0.5 -0.5l0.5 -0.5l1 -1v0q2 -3 5 -6q14 -14 34 -14t34 14t14 34t-14 35q-2 2 -6 4z" />
    <glyph glyph-name="right" unicode="&#xe630;" 
d="M761 364l1 1t1 2q7 13 4.5 28.5t-14.5 26.5l-353 334q-15 14 -34.5 13.5t-33.5 -15t-13 -34.5t15 -34l317 -299l-316 -305q-14 -13 -14.5 -33t13.5 -35q14 -14 35 -14q19 0 33 13l350 338l0.5 1t1 1t1 0.5l0.5 0.5q1 2 6 10z" />
    <glyph glyph-name="quanping" unicode="&#xe60d;" 
d="M909 32q5 -39 -35 -37l-209 24q-25 2 -32 13.5t8 25.5q9 8 22.5 22.5t23.5 23.5q9 10 5.5 18.5t-13.5 19.5q-24 22 -43.5 40.5t-43.5 42.5q-5 5 -10 10.5t-7.5 12.5t-1 15t11.5 17q5 5 8.5 9t6.5 7t7 6.5t10 10.5q17 16 31.5 13.5t31.5 -19t35 -33.5t40 -39
q16 -14 27.5 -20t22.5 5q8 7 19.5 17.5t19.5 18.5q15 14 26.5 11t13.5 -25zM118 735q-3 21 5 29.5t29 6.5l209 -23q26 -2 32 -13.5t-8 -25.5q-9 -8 -21 -21.5t-22 -22.5q-10 -10 -6.5 -18.5t14.5 -18.5q11 -12 21 -20.5t19 -17.5l19 -19l22 -21q5 -5 9.5 -11.5t6.5 -14
t-0.5 -16t-10.5 -16.5l-9 -9q-4 -3 -7 -6.5t-7 -6.5l-9 -10q-17 -17 -29.5 -13t-29.5 21t-32.5 31.5t-37.5 35.5q-15 15 -27 21t-23 -5q-8 -8 -21.5 -20t-22.5 -21q-14 -14 -25 -10.5t-14 25.5zM872 772q22 3 30.5 -5t7.5 -29l-24 -204q-3 -24 -14.5 -31t-25.5 8
q-9 9 -22.5 21t-22.5 21q-10 9 -18.5 6t-19.5 -14q-23 -22 -40.5 -40.5t-41.5 -41.5q-5 -5 -12 -9.5t-14.5 -6.5t-16 0.5t-17.5 11.5l-8.5 8.5t-7 6.5t-7.5 6.5t-10 10.5q-17 16 -13.5 28.5t21.5 29.5l32 33q16 17 38 38q17 15 22.5 26.5t-5.5 21.5q-8 8 -20 21t-20 21
q-15 14 -11.5 25t25.5 13zM152 0q-22 -1 -30.5 7t-7.5 27l24 205q3 25 14.5 31t25.5 -8q9 -8 23.5 -21.5t24.5 -22.5q10 -10 17 -8.5t17 11.5q11 11 21 21.5t20.5 20.5t21 20.5l22.5 22.5q5 5 11 10t13 7.5t15 0.5t18 -11q5 -5 9 -8.5t7 -6.5l7 -8l10 -9q17 -16 15 -30
t-20 -31l-34 -34t-40 -39q-15 -15 -19 -24.5t7 -20.5l19 -19l19 -19q15 -15 11 -25.5t-26 -13.5z" />
    <glyph glyph-name="shishizhuangtai" unicode="&#xe602;" 
d="M896 728h-774q-22 0 -37.5 -15.5t-15.5 -37.5v-554q0 -22 15.5 -37.5t37.5 -15.5h774q22 0 37 15.5t15 37.5v554q0 22 -15 37.5t-37 15.5zM893 233h-769v440h769v-440zM399 68h220v-55h-220v55zM289 13h440v-55h-440v55zM765 628q-20 0 -34.5 -14t-14.5 -35q0 -9 4 -18
l-145 -135q-12 8 -27 8q-7 0 -15 -2l-46 58q5 11 5 22q0 21 -14 35t-34.5 14t-35 -14t-14.5 -35q0 -1 1 -7l-117 -91q-12 7 -26 7q-20 0 -34.5 -14t-14.5 -34.5t14.5 -35t35 -14.5t34.5 14.5t14 34.5q0 7 -2 15l113 88l0.5 -0.5l0.5 -0.5q13 -11 30 -11q10 0 19 4l45 -56
q-8 -12 -8 -26q0 -20 14.5 -34.5t34.5 -14.5t34.5 14.5t14.5 34.5q0 6 -2 13l148 138q11 -5 22 -5q20 0 34.5 14t14.5 34.5t-14.5 34.5t-34.5 14zM252.5 357q-6.5 0 -11 4.5t-4.5 11t4.5 10.5t11 4t10.5 -4t4 -10.5t-4 -11t-10.5 -4.5zM434 501q-6 4 -6 11t4.5 11t11 4
t10.5 -4t4 -10.5t-4 -10.5v0v0q-5 -4 -11 -4t-9 3zM548 370q-6 0 -10.5 4.5t-4.5 10.5q0 8 6 12v0v0q4 3 9 3q6 0 10.5 -4t4.5 -10.5t-4.5 -11t-10.5 -4.5zM765 564q-6 0 -10.5 4.5t-4.5 11t4.5 11t10.5 4.5t10.5 -4.5t4.5 -11t-4.5 -11t-10.5 -4.5z" />
    <glyph glyph-name="yonghu" unicode="&#xe603;" 
d="M833 157q-4 2 -55 28t-93.5 40.5t-97.5 20.5q11 9 19.5 19.5t18 30t14 30.5t16.5 42.5t17 43.5l0.5 1.5l0.5 1.5q13 -2 20 2q9 7 16 34.5t7 48.5q0 16 -4.5 24.5t-8.5 8.5h-5h-1l1 9q0 8 1.5 35.5t1 48.5t-4.5 35q-4 12 -8 29t-6 24t-7 17t-14 19q-30 32 -93 54t-130 7
q-19 -4 -28.5 -13.5t-10 -18t-2.5 -15t-8 -6.5q-12 0 -22 -8t-18 -24.5t-12.5 -29.5t-10.5 -36q-4 -13 -4.5 -33.5t1 -48t1.5 -36.5v-2.5v-3.5v-3h-2q0 -1 -1.5 0t-4.5 -1t-5.5 -4.5t-4 -10t-1.5 -17.5q0 -21 6.5 -48.5t16.5 -34.5q7 -4 20 -2l0.5 -1.5t1.5 -1.5
q5 -14 16.5 -44.5t16.5 -42.5t14 -30.5t17.5 -29.5t19.5 -19q-54 -7 -96.5 -21t-92.5 -40t-54 -28q-97 -43 -113 -98l-2 -10v-95h873v95q0 24 -34 56q-30 29 -82 52z" />
    <glyph glyph-name="tianjia" unicode="&#xe629;" 
d="M283 -51v202h-200zM797 239v151h-100v-151h-151v-101h151v-138h100v138h138v101h-138zM647 88h-76q-26 0 -44 18.5t-18 44.5v75q0 27 18 45t44 18h76v76q0 26 18 44.5t44 18.5q6 0 13 -1v392q0 5 -4 8.5t-9 3.5h-589q-5 0 -8.5 -3.5t-3.5 -8.5v-630q0 3 1.5 3t5 -1.5
t5.5 -1.5h188q5 0 9 -4t4 -9v-189q0 -3 1.5 -6.5t1.5 -4.5t-3 -1h331q-5 12 -5 25v88zM168 746q0 6 4 10t10 4h469q6 0 10 -4t4 -10v-14q0 -6 -4 -10t-10 -4h-469q-6 0 -10 4t-4 10v14zM168 647q0 5 4 9.5t10 4.5h469q6 0 10 -4.5t4 -9.5v-15q0 -6 -4 -10t-10 -4h-469
q-6 0 -10 4t-4 10v15zM168 547q0 6 4 10t10 4h469q6 0 10 -4t4 -10v-14q0 -6 -4 -10t-10 -4h-469q-6 0 -10 4t-4 10v14zM452 434q0 -15 -8 -15h-268q-8 0 -8 15v14q0 14 8 14h268q8 0 8 -14v-14z" />
    <glyph glyph-name="yuyin" unicode="&#xe60e;" 
d="M511.5 272q69.5 0 118.5 49t49 119v223q0 70 -49 119t-118.5 49t-118.5 -49t-49 -119v-223q0 -70 49 -119t118.5 -49zM819 426v0v0q0 17 -12.5 29.5t-29.5 12.5t-29.5 -12.5t-12.5 -29.5v0q0 -93 -65.5 -158.5t-158 -65.5t-158 65.5t-65.5 158.5v0q0 17 -12 29.5
t-29.5 12.5t-30 -12.5t-12.5 -29.5v0v0q0 -116 76.5 -202.5t189.5 -101.5v-101h-140q-17 0 -29.5 -12.5t-12.5 -29.5t12.5 -29.5t29.5 -12.5h363q18 0 30 12.5t12 29.5t-12 29.5t-30 12.5h-139v101q113 15 189 101.5t76 202.5z" />
    <glyph glyph-name="ordinaryset" unicode="&#xe60f;" 
d="M927 453h-41q-14 0 -27.5 10t-17.5 23l-24 58q-7 13 -4.5 29t12.5 26l30 30q10 10 10 24.5t-10 24.5l-49 49q-10 10 -24.5 10t-24.5 -10l-30 -30q-10 -10 -26 -12.5t-29 4.5l-58 24q-13 4 -23 17.5t-10 27.5v41q0 15 -10 25t-24 10h-70q-14 0 -24 -10t-10 -25v-41
q0 -15 -10 -28t-23 -17l-58 -24q-13 -7 -29 -4.5t-26 12.5l-30 30q-10 10 -24.5 10t-24.5 -10l-49 -49q-10 -10 -10 -24.5t10 -24.5l30 -30q10 -10 12.5 -26t-4.5 -29l-24 -58q-4 -13 -17.5 -23t-27.5 -10h-41q-15 0 -25 -10t-10 -24v-70q0 -14 10 -24t25 -10h41
q14 0 27.5 -10t17.5 -23l24 -58q7 -13 4.5 -29t-12.5 -26l-30 -30q-10 -10 -10 -24.5t10 -24.5l49 -49q10 -10 24.5 -10t24.5 10l30 30q10 10 26 12.5t29 -4.5l58 -24q13 -4 23 -17.5t10 -27.5v-41q0 -15 10 -25t24 -10h70q14 0 24 10t10 25v41q0 14 10 27.5t23 17.5l58 24
q13 7 29 4.5t26 -12.5l30 -30q10 -10 24.5 -10t24.5 10l49 49q10 10 10 24.5t-10 24.5l-30 30q-10 10 -12.5 26t4.5 29l24 58q4 13 17.5 23t27.5 10h41q15 0 25 10t10 24v70q0 14 -10 24t-25 10zM685 384q0 -72 -50.5 -122.5t-122.5 -50.5t-122.5 50.5t-50.5 122.5
t50.5 122.5t122.5 50.5t122.5 -50.5t50.5 -122.5z" />
    <glyph glyph-name="shangyiye" unicode="&#xe61b;" 
d="M780 750q0 22 -10 31q-2 2 -5 4q-10 7 -21.5 7t-26.5 -12l-463 -342q-11 -11 -10 -26q-1 -14 10 -25l465 -344q28 -21 51 0q10 10 10 32v675z" />
    <glyph glyph-name="xiayiye" unicode="&#xe61c;" 
d="M244 750q0 22 10 31l4 4q10 7 21.5 7t26.5 -12l463 -342q11 -11 11 -26q0 -14 -11 -25l-464 -344q-29 -21 -51 0q-11 10 -10 32v675z" />
    <glyph glyph-name="warn" unicode="&#xe632;" 
d="M511 832q-91 0 -174 -35.5t-142.5 -95.5t-95 -143t-35.5 -174t35.5 -173.5t95 -142.5t142.5 -95.5t174 -35.5t174 35.5t143 95.5t95.5 142.5t35.5 173.5t-35.5 174t-95.5 143t-143 95.5t-174 35.5zM509 105q-23 1 -40 18t-18 40q0 26 18 44.5t44 17.5q24 -1 40.5 -17.5
t17.5 -40.5q1 -26 -17.5 -44t-44.5 -18zM572 331q0 -23 -15 -39.5t-36 -16.5h-18q-21 0 -35.5 16.5t-14.5 39.5l-22 277q0 23 15 39t36 16h59q21 0 35.5 -16t14.5 -39z" />
    <glyph glyph-name="menjinxitong" unicode="&#xe604;" 
d="M231 834q-24 0 -40.5 -16.5t-16.5 -39.5v-788q0 -23 16.5 -39.5t40.5 -16.5h169v900h-169zM297.5 -13q-23.5 0 -40 16.5t-16.5 39.5t16.5 39.5t40 16.5t40 -16.5t16.5 -39.5t-16.5 -39.5t-40 -16.5zM456 834h112v-900h-112v900zM793 834h-169v-900h169q24 0 40.5 16.5
t16.5 39.5v788q0 23 -16.5 39.5t-40.5 16.5z" />
    <glyph glyph-name="baocun" unicode="&#xe610;" 
d="M340 112h108v-176h-108v176zM939 832h-854q-8 0 -14 -6t-6 -14v-739l137 -135h62v0v30v230h411v-260v0v0h264q8 0 14 6t6 14v854q0 8 -6 14t-14 6zM816 382h-608v401h608v-401zM340 -62h108v0h-108v0z" />
    <glyph glyph-name="guanbi2" unicode="&#xe633;" 
d="M512 890q-102 0 -195.5 -40t-161 -107.5t-107.5 -161t-40 -195.5t40 -195.5t107.5 -161t161 -107.5t195.5 -40t195.5 40t161 107.5t107.5 161t40 195.5t-40 195.5t-107.5 161t-161 107.5t-195.5 40zM650 354l131 -131q14 -14 14 -33.5t-14 -33.5l-37 -37
q-14 -14 -33.5 -14t-33.5 14l-131 131q-13 13 -33 13t-33 -13l-131 -131q-14 -14 -33.5 -14t-33.5 14l-37 37q-14 14 -14 33.5t14 33.5l131 131q13 13 13 33t-13 33l-131 131q-14 14 -14 33.5t14 33.5l37 37q14 14 33.5 14t33.5 -14l131 -131q13 -13 33 -13t33 13l131 131
q14 14 33.5 14t33.5 -14l37 -37q14 -14 14 -33.5t-14 -33.5l-131 -131q-13 -13 -13 -33t13 -33z" />
    <glyph glyph-name="youjiantou2" unicode="&#xe612;" 
d="M513 828q-90 0 -172.5 -35t-142 -94.5t-94.5 -142t-35 -172.5t35 -172.5t94.5 -142t142 -94.5t172.5 -35t172.5 35t142 94.5t94.5 142t35 172.5t-35 172.5t-94.5 142t-142 94.5t-172.5 35zM777 337l-239 -239q-20 -19 -46.5 -20t-45 17.5t-17.5 45.5t20 46l131 130h-289
q-27 0 -46.5 20t-19.5 47t19.5 47t46.5 20h289l-131 130q-19 19 -20 46t17.5 45.5t45 17.5t46.5 -20l239 -239q19 -19 19 -47t-19 -47z" />
    <glyph glyph-name="zuojiantou2" unicode="&#xe613;" 
d="M511 -60q90 0 172.5 35t142 94.5t94.5 142t35 172.5t-35 172.5t-94.5 142t-142 94.5t-172.5 35t-172.5 -35t-142 -94.5t-94.5 -142t-35 -172.5t35 -172.5t94.5 -142t142 -94.5t172.5 -35zM247 431l239 239q20 19 46.5 20t45 -17.5t17.5 -45.5t-20 -46l-131 -130h289
q27 0 46.5 -20t19.5 -47t-19.5 -47t-46.5 -20h-289l131 -130q19 -19 20 -46t-17.5 -45.5t-45 -17.5t-46.5 20l-239 239q-19 19 -19 47t19 47z" />
    <glyph glyph-name="quanxuan" unicode="&#xe62b;" 
d="M902 118h-535q-50 0 -85.5 36t-35.5 86v534q0 51 35.5 86.5t85.5 35.5h535q50 0 85.5 -35.5t35.5 -86.5v-534q0 -50 -35.5 -86t-85.5 -36zM941 741q0 30 -21 51.5t-52 21.5h-467q-31 0 -52.5 -21.5t-21.5 -51.5v-468q0 -30 21.5 -51.5t52.5 -21.5h467q31 0 52 21.5
t21 51.5v468zM602 355q-7 -7 -18 -8q-20 -11 -36 5l-130 130q-9 9 -9 21.5t9 21.5l14 15q9 9 22 9t21 -9l98 -98l217 217q9 9 21.5 9t21.5 -9l15 -14q9 -9 9 -22t-9 -22zM819 77q17 0 29 -12t12 -29t-12 -29t-29 -12h-594q-42 0 -72 30t-30 73v593q0 17 12 29t29 12t29 -12
t12 -29v-552q0 -26 18 -44t43 -18h553zM655 -45q17 0 29 -12t12 -29t-12 -29t-29 -12h-553q-42 0 -72 30t-30 72v553q0 17 12 29t29 12t29 -12t12 -29v-512q0 -25 18 -43t43 -18h512z" />
    <glyph glyph-name="yingsaitong" unicode="&#xe605;" 
d="M920 432l-331 344q-31 33 -77 33t-77 -33l-331 -344q-16 -17 -22.5 -34t-6 -27t4.5 -19q15 -34 56 -34h49v-265q0 -46 30 -81t74 -35h141v280v11.5v11t0.5 8t2.5 7.5t5 4.5t7.5 3.5t10.5 1h112q6 0 10.5 -1t7.5 -3.5t5 -4.5t2.5 -7.5t0.5 -8v-11v-11.5v-280h141
q44 0 74 35t30 81v265h49q41 0 56 34q17 37 -24 80z" />
    <glyph glyph-name="queren" unicode="&#xe626;" 
d="M64 344q63 -23 116.5 -48.5t85.5 -45t55 -36t32 -24.5l9 -9q44 107 101 200.5t110.5 157t113.5 117.5t104 84.5t88 54t58.5 29t21.5 8.5v0q-78 -52 -153 -130t-133 -160t-109.5 -170t-87.5 -164t-62 -138.5t-39 -97t-13 -35.5q-41 91 -87.5 166.5t-82 118t-66.5 72
t-46 40t-16 10.5zM363 -65l-1 1q-93 204 -205 326q-56 61 -93 81v1q140 -51 233 -112q44 -29 65 -50q74 179 183 322q88 114 196 199q54 43 110.5 76t77 41.5t30.5 11.5h1q-71 -48 -138.5 -115t-123.5 -142.5t-99 -144.5t-82 -142q-44 -84 -84 -176t-52 -125t-18 -51v-1z
M69 341q40 -25 89 -79q111 -121 204 -324q57 165 155 351q88 167 187 295q122 158 252 246q-101 -37 -215 -128q-47 -37 -92 -82.5t-96.5 -109t-101 -148.5t-88.5 -181v-1h-1q-19 21 -65 51q-92 60 -228 110z" />
    <glyph glyph-name="yuyin2" unicode="&#xe631;" 
d="M419 212q42 -27 86 -24t80.5 24.5t60.5 61t26 84.5v317q0 33 -1.5 53t-9.5 46t-24 48q-38 50 -101.5 61.5t-116.5 -19.5q-24 -12 -40.5 -30.5t-25.5 -42.5t-14 -47t-6 -53t-0.5 -52t1.5 -53t1 -48t-1 -48.5t-1.5 -53t0.5 -51t6.5 -51.5t14.5 -45.5t25.5 -42.5t39.5 -34z
M378 421v298q0 56 38 90.5t90 33.5t90 -39q10 -10 16.5 -22.5t10 -21.5t5 -26.5t2 -24.5t0 -28t-0.5 -25v-298q-2 -55 -39.5 -90t-88.5 -34.5t-90 39.5q-10 9 -16.5 21.5t-10 22t-5 27t-2 24t0 28t0.5 25.5zM767 631v-270q0 -92 -32 -149q-34 -59 -96.5 -91.5t-133.5 -34.5
q-4 1 -7 0q-66 0 -126 31.5t-97 85.5q-38 55 -38 158v270q0 13 -11 18.5t-21.5 0t-10.5 -18.5v-296q0 -118 83.5 -199.5t203.5 -90.5v-105h-171q-13 0 -18.5 -11t0 -21.5t18.5 -10.5h384q13 0 18 10.5t0 21.5t-18 11h-171v104q118 6 202.5 90t84.5 201v296q0 13 -10.5 18.5
t-21.5 0t-11 -18.5z" />
    <glyph glyph-name="user_set" unicode="&#xe634;" horiz-adv-x="1025" 
d="M408 147q0 69 27 134q26 62 73.5 109.5t109.5 73.5q23 10 47 16q2 7 5 20q9 3 17 10q8 6 13.5 17.5t8.5 30.5q2 14 0 24t-6 16q-4 7 -10 11q1 37 -5 72q-4 30 -15 65q-12 35 -34 64q-11 13 -26 24q-17 13 -37 22q-21 10 -44.5 16.5t-50.5 6.5q-20 0 -42 -3.5t-43.5 -12.5
t-43.5 -25q-21 -16 -38 -40q-18 -27 -27 -59q-10 -33 -13 -61q-5 -34 -4 -68q-7 -9 -11 -19q-3 -9 -5 -21q-1 -13 3 -28q5 -15 11 -23q7 -8 12 -13q7 -4 12 -6q4 -13 9 -28q6 -13 10 -23q6 -11 13 -17q16 -14 27 -24q12 -12 14 -34q1 -15 1 -25q0 -11 -4 -22t-14 -22
q-10 -10 -29 -22q-24 -15 -55 -24q-16 -4 -130 -43q-30 -10 -51.5 -27t-26.5 -50q-7 -46 -4 -69q5 -37 15 -44q8 -7 46 -15q22 -5 60.5 -11.5t120.5 -15t159 -9.5q-10 18 -18 37q-27 65 -27 135zM408 146.5q0 69.5 27 134.5q26 62 73.5 109.5t109.5 73.5q23 10 47 16
q4 14 5 21q9 2 17 9t13 18q6 11 9 30q2 14 0 24q-3 11 -6 17q-4 7 -10 10q1 36 -5 72q-4 32 -15 66t-34 63q-10 13 -26 25q-17 12 -37 22q-21 10 -44.5 16t-50.5 6q-20 0 -42 -3.5t-44 -12.5t-43 -24.5t-38 -40.5q-18 -26 -27 -58q-10 -33 -13 -61q-5 -35 -4 -69
q-7 -9 -11 -19q-3 -8 -5 -21q-1 -12 3 -27q5 -15 11 -24q7 -8 12 -12q6 -5 12 -6q4 -13 9 -28q5 -12 10 -23q6 -12 13 -18q16 -13 27 -24q12 -12 14 -33q1 -15 1 -25q0 -12 -4 -23t-14 -21.5t-29 -22.5q-24 -15 -55 -23q-16 -4 -130 -43q-30 -10 -51.5 -27.5t-26.5 -50.5
q-7 -46 -4 -69q5 -37 15 -44q8 -6 46 -15q21 -4 60.5 -11t121 -15t159.5 -10q-9 16 -19 38q-27 64 -27 133.5zM1022 178q-2 9 -9.5 17t-16.5 10l-9 2q-34 11 -51 41q-18 32 -10 66v0l3 8q3 9 -0.5 19.5t-10.5 16.5q-8 7 -32 21l-34 17q-9 3 -19.5 0.5t-16.5 -9.5l-6 -6
q-26 -25 -62 -25t-61 25l-6 6q-7 7 -17.5 9.5t-18.5 -0.5q-11 -4 -35 -17l-32 -21q-7 -6 -10 -16.5t0 -19.5l2 -9q8 -35 -9 -65q-18 -31 -52 -41l-9 -2q-9 -2 -16.5 -10t-9.5 -17q-2 -11 -2 -38l2 -39q2 -9 9.5 -16.5t16.5 -10.5l9 -2q34 -10 52 -41t9 -65v0l-2 -9
q-3 -8 0 -18.5t10 -16.5q9 -8 33 -21l34 -18q8 -3 18.5 -0.5t17.5 9.5l6 7q26 24 61 24q36 0 62 -24v0l6 -7q6 -7 16.5 -9.5t19.5 0.5q11 4 34 18l33 21q7 5 10 16t0 19l-3 9q-8 35 10 65q18 31 52 41v0l9 2q9 3 16.5 10.5t8.5 16.5q2 11 2 39l-2 38v0zM748 30
q-45 0 -77.5 32t-32.5 77.5t32.5 78t78 32.5t77.5 -32.5t32 -78t-32 -77.5t-78 -32v0z" />
    <glyph glyph-name="shebeiguanli" unicode="&#xe606;" 
d="M584 341h-28q-8 0 -16 6t-11 14l-14 35q-4 7 -2.5 17t7.5 16l19 19q6 5 6 12.5t-6 13.5l-33 33q-5 5 -12.5 5t-12.5 -5l-20 -20q-6 -6 -15.5 -7.5t-17.5 2.5l-34 15q-9 2 -14.5 10t-5.5 16v28q0 8 -5.5 13t-12.5 5h-47q-8 0 -13 -5t-5 -13v-28q0 -8 -6 -16t-14 -10
l-35 -15q-7 -4 -16.5 -2.5t-15.5 7.5l-20 20q-5 5 -12.5 5t-13.5 -5l-33 -33q-5 -6 -5 -13.5t5 -12.5l20 -19q6 -6 7.5 -16t-2.5 -17l-15 -35q-2 -8 -10 -14t-16 -6h-28q-7 0 -12.5 -5t-5.5 -13v-47q0 -7 5.5 -12.5t12.5 -5.5h28q8 0 16 -5.5t10 -13.5l15 -35
q4 -8 2.5 -17.5t-7.5 -15.5l-20 -20q-5 -5 -5 -12.5t5 -12.5l33 -33q6 -6 13.5 -6t12.5 6l19 19q7 6 16.5 7.5t16.5 -2.5l35 -14q8 -3 14 -11t6 -16v-28q0 -7 5 -12.5t13 -5.5h47q7 0 12.5 5.5t5.5 12.5v28q0 8 5.5 16t14.5 11l34 14q8 4 17.5 2.5t15.5 -7.5l20 -19
q5 -6 12.5 -6t12.5 6l33 33q6 5 6 12.5t-6 12.5l-19 20q-6 6 -7.5 15.5t2.5 17.5l14 35q3 8 11 13.5t16 5.5h28q7 0 12.5 5.5t5.5 12.5v47q0 8 -5.5 13t-12.5 5v0zM332 196q-43 0 -73 30.5t-30 73.5t30 73t73 30t73.5 -30t30.5 -73t-30.5 -73.5t-73.5 -30.5v0zM956 572
q-4 3 -9 3h-20q-15 0 -20 15l-10 25q-7 13 4 24l14 14q4 4 4 9.5t-4 8.5l-24 24q-4 4 -9.5 4t-9.5 -4l-14 -14q-11 -10 -24 -3l-25 10q-6 2 -10 7.5t-4 12.5v19q0 6 -4 10t-9 4h-34q-6 0 -9.5 -4t-3.5 -10v-19q0 -16 -15 -20l-25 -10q-13 -7 -24 3l-14 14q-4 4 -9 4t-9 -4
l-24 -24q-4 -3 -4 -8.5t4 -9.5l14 -14q11 -11 3 -24l-10 -25q-4 -15 -19 -15h-20q-6 0 -9.5 -3.5t-3.5 -9.5v-34q0 -5 3.5 -9t9.5 -4h20q15 0 19 -14l10 -25q8 -13 -3 -24l-14 -14q-4 -4 -4 -9.5t4 -9.5l24 -24q4 -3 9 -3t9 3l14 15q11 10 24 3l25 -10q15 -5 15 -20v-20
q0 -5 3.5 -9t9.5 -4h34q5 0 9 4t4 9v20q0 15 14 20l25 10q13 7 24 -3l14 -15q4 -3 9.5 -3t9.5 3l24 24q4 4 4 9.5t-4 9.5l-14 14q-11 11 -4 24l10 25q2 6 8 10t12 4h20q5 0 9 4t4 9v34q0 6 -4 10v0zM765 470q-31 0 -53 22t-22 53.5t22 53t53 21.5t53 -21.5t22 -53t-22 -53.5
t-53 -22v0zM765 470z" />
    <glyph glyph-name="share" unicode="&#xe635;" 
d="M884 509l-154 -152q-11 -12 -27 -12t-27.5 11.5t-11.5 27.5t11 27l88 87h-156q-80 0 -136.5 -56t-56.5 -135v-76h-77v76q0 111 79 189t191 78h156l-88 88q-11 11 -11 27t11.5 27t27.5 11t27 -11l154 -152q11 -12 11 -28t-11 -27zM203 117h615v190h77v-190
q0 -32 -22.5 -54.5t-54.5 -22.5h-615q-32 0 -54.5 22.5t-22.5 54.5v513q0 31 22.5 53.5t54.5 22.5h231v-76h-231v-513z" />
    <glyph glyph-name="shanchu" unicode="&#xe618;" 
d="M878 668.5q-11 15.5 -29.5 25.5t-46.5 10h-43q-23 0 -43 1v64q0 26 -12.5 45t-45.5 19h-295q-24 0 -41 -19t-17 -45v-63h-84q-24 0 -42 -9t-29.5 -23t-17 -30.5t-5.5 -29.5q0 -27 1 -32q0 -4 1 -5h58v-527q0 -27 9 -48t24.5 -36t37 -23t46.5 -8h420q26 0 46.5 8.5
t34.5 23t21.5 33.5t7.5 39v538h62v6q0 3 0.5 7.5t0.5 11.5q0 15 -4 33t-15 33.5zM363 769h295v-65h-295v65zM364 98q0 -42 -30 -42q-16 0 -22 10t-6 32v475h58v-475zM539 98q0 -22 -5.5 -31.5t-21.5 -9.5q-31 0 -31 41v475h58v-475zM717 100q0 -22 -5.5 -31.5t-22.5 -9.5
q-31 0 -31 41v473h59v-473z" />
    <glyph glyph-name="jiazai" unicode="&#xe636;" 
d="M820 340h-88q-18 0 -31 13t-13 31t13 31t31 13h88q18 0 31 -13t13 -31t-13 -31t-31 -13v0v0zM699 508q-13 -13 -31.5 -13t-31.5 13t-13 31.5t13 31.5l63 62q12 13 30.5 13t31.5 -13t13 -31.5t-13 -30.5zM512 32q-18 0 -31 13t-13 31v88q0 18 13 31t31 13t31 -13t13 -31
v-88q0 -18 -13 -31t-31 -13v0v0zM512 560q-18 0 -31 13t-13 31v88q0 18 13 31t31 13t31 -13t13 -31v-88q0 -18 -13 -31t-31 -13v0v0zM325 135q-12 -13 -30.5 -13t-31.5 13t-13 31.5t13 30.5l62 63q13 13 31.5 13t31 -13t13 -31.5t-12.5 -31.5zM325 508l-62 63
q-13 12 -13 30.5t13 31.5t31.5 13t30.5 -13l63 -62q12 -13 12 -31.5t-12.5 -31.5t-31 -13t-31.5 13v0v0zM336 384q0 -18 -13 -31t-31 -13h-88q-18 0 -31 13t-13 31t13 31t31 13h88q18 0 31 -13t13 -31v0v0zM699 260l62 -63q13 -12 13 -30.5t-13 -31.5t-31.5 -13t-30.5 13
l-63 62q-13 13 -13 31.5t13 31.5t31.5 13t31.5 -13v0v0zM699 260z" />
    <glyph glyph-name="server" unicode="&#xe62d;" horiz-adv-x="1093" 
d="M902 -8h-702q-32 0 -54 20t-22 50v82q0 30 22 50t54 20h702q32 0 54 -20t22 -50v-82q0 -30 -22 -50t-54 -20zM817.5 157q-22.5 0 -39 -16t-16.5 -38t16.5 -37.5t39 -15.5t38.5 15.5t16 37.5t-16 38t-38.5 16zM902 268h-702q-32 0 -54 20t-22 50v82q0 30 22 50t54 20h702
q32 0 54 -20t22 -50v-82q0 -30 -22 -50t-54 -20zM817.5 432q-22.5 0 -39 -15.5t-16.5 -37.5t16.5 -38t39 -16t38.5 16t16 38t-16 37.5t-38.5 15.5zM902 543h-702q-32 0 -54 20.5t-22 50.5v82q0 30 22 50t54 20h702q32 0 54 -20t22 -50v-82q0 -30 -22 -50.5t-54 -20.5z
M762 655q0 -22 16.5 -38t39 -16t38.5 16t16 38t-16 37.5t-38.5 15.5t-39 -15.5t-16.5 -37.5z" />
    <glyph glyph-name="qingkong" unicode="&#xe62c;" 
d="M160 312h32h4h679h13h14q18 0 25.5 12t-0.5 29l-87 186q-8 16 -26.5 28t-37.5 12h-153v139v133q0 19 -13 32t-32 13h-89q-18 0 -31 -13t-13 -32v-133v-139h-159q-19 0 -37.5 -12t-26.5 -28l-87 -186q-8 -17 -0.5 -29t25.5 -12v0zM881 246h-683q3 -66 -7 -116.5t-48 -83.5
q-29 -25 -41 -52t-8.5 -50t17.5 -42t35 -30h116q12 16 26 38t36.5 69t30.5 88l5 31q-1 -14 -5 -31q-26 -173 -43 -195h84q12 16 26 38t36.5 69t30.5 88l5 31q-1 -14 -5 -31q-27 -173 -43 -195h106q12 16 26 38t36 69t31 88l4 31q-1 -14 -4 -31q-27 -173 -43 -195h106
q12 16 26 38t36 69t31 88l4 31q-1 -14 -4 -31q-27 -173 -43 -195h107q2 1 7 3t16.5 11t19.5 20t13.5 30.5t2.5 42.5q-3 21 -8.5 62.5t-8 59t-7 46t-9 51.5t-10.5 48v0zM881 246z" />
    <glyph glyph-name="shuaxin" unicode="&#xe614;" 
d="M108 597q3 5 9.5 14t27.5 34.5t44 48.5t58.5 50.5t71.5 46.5q63 33 136 40t138.5 -8.5t119.5 -48.5q46 -29 81 -59.5t47 -46.5l12 -15l90 51q1 0 2 0.5t4 1t5.5 0t4.5 -4t2 -9.5v-323q0 -3 -0.5 -7.5t-6 -10t-14.5 -0.5q-20 9 -279 157q-15 6 -16 13t5 11l7 3l87 50
q-6 7 -16 18t-42 36.5t-64 40.5q-59 31 -116 34t-124 -22q-46 -18 -93 -60t-83 -101zM916 171q-3 -5 -9.5 -14t-27.5 -34.5t-44 -48.5t-58.5 -50.5t-71.5 -46.5q-63 -33 -136 -40t-139 8.5t-119 49.5q-47 29 -83 60.5t-44.5 43t-12.5 17.5v0l-90 -52q-1 0 -2 -0.5t-4.5 -1
t-6 0.5t-4.5 4.5t-2 9.5v322q0 3 0.5 7.5t6 10t15.5 1.5q20 -10 279 -157q15 -7 16 -14t-6 -10l-6 -4l-87 -49q5 -7 15.5 -18.5t42.5 -37t64 -40.5q59 -30 115.5 -33t124.5 22q45 17 92.5 59t82.5 102z" />
    <glyph glyph-name="starshanchu" unicode="&#xe62a;" 
d="M202 19v531h468v-92h120v159h-184v216h-524v-902h708v88h-588zM651 833v-163h139zM274 296h262v-60h-262v60zM274 149h262v-59h-262v59zM274 442h324v-60h-324v60zM842 397l-74 -74l-74 74l-91 -91l74 -73l-74 -74l91 -91l74 74l74 -74l91 91l-74 74l74 74z" />
    <glyph glyph-name="zengjiaxiang" unicode="&#xe615;" 
d="M688.5 333q-83.5 0 -142.5 -59t-59 -142.5t59 -142.5t142.5 -59t142.5 59t59 142.5t-59 142.5t-142.5 59zM789 107h-75v-76q0 -10 -7.5 -17.5t-18 -7.5t-18 7.5t-7.5 17.5v76h-75q-11 0 -18 7.5t-7 17.5t7 17.5t18 7.5h75v76q0 10 7.5 17.5t18 7.5t18 -7.5t7.5 -17.5v-76
h75q10 0 17.5 -7.5t7.5 -17.5t-7.5 -17.5t-17.5 -7.5zM814 837h-604q-31 0 -53 -22.5t-22 -53.5v-755q0 -31 22 -53t53 -22h266q-31 34 -50 75h-140q-31 0 -53.5 22t-22.5 54v604q0 31 22.5 53t53.5 22h453q31 0 53 -22t22 -53v-300q42 -20 76 -52v427q0 31 -22 53.5
t-54 22.5zM324 560h377q16 0 27 11t11 26.5t-11 26.5t-27 11h-377q-16 0 -27 -11t-11 -26.5t11 -26.5t27 -11zM324 409h377q16 0 27 11t11 26.5t-11 26.5t-27 11h-377q-16 0 -27 -11t-11 -26.5t11 -26.5t27 -11z" />
    <glyph glyph-name="kuaizhao" unicode="&#xe607;" 
d="M871 39h-728q-31 0 -52 21.5t-21 51.5v437q0 30 21 51.5t52 21.5h145v73q0 30 21.5 51t51.5 21h291q30 0 51.5 -21t21.5 -51v-73h146q30 0 51 -21.5t21 -51.5v-437q0 -30 -21 -51.5t-51 -21.5v0zM179 549q-15 0 -25.5 -10.5t-10.5 -25.5t10.5 -26t25.5 -11t25.5 11
t10.5 26t-10.5 25.5t-25.5 10.5v0zM551 549h-82q-77 -15 -128 -75.5t-51 -140.5q0 -91 64.5 -155.5t155.5 -64.5t155.5 64.5t64.5 155.5q0 80 -51 140.5t-128 75.5v0zM501 220q-45 0 -77.5 32t-32.5 78t32.5 78t78 32t77.5 -32t32 -78t-32 -78t-78 -32v0z" />
    <glyph glyph-name="triangle-bottom" unicode="&#xe623;" 
d="M524 64l324 512q10 16 1 32.5t-28 16.5h-648q-19 0 -28 -17q-4 -7 -4 -15q0 -9 5 -17l324 -512q9 -15 27 -15t27 15z" />
    <glyph glyph-name="jian" unicode="&#xe61f;" 
d="M512 834q-92 0 -175 -35.5t-143.5 -96t-96 -143.5t-35.5 -175t35.5 -175t96 -143.5t143.5 -96t175 -35.5t175 35.5t143.5 96t96 143.5t35.5 175t-35.5 175t-96 143.5t-143.5 96t-175 35.5zM779 323h-540v122h540v-122z" />
    <glyph glyph-name="zuixiaohua" unicode="&#xe616;" 
d="M256 490h512q26 0 45 -18.5t19 -45t-19 -45.5t-45 -19h-512q-26 0 -45 19t-19 45.5t19 45t45 18.5z" />
    <glyph glyph-name="fangda" unicode="&#xe617;" 
d="M555 840l160 -160l-218 -217l75 -75l218 217l159 -159v394h-394zM441 406l-218 -217l-159 159v-394h394l-160 159l218 218z" />
    <glyph glyph-name="suoxiao" unicode="&#xe619;" 
d="M898 401l-149 150l204 204l-70 70l-204 -204l-150 149v-369h369zM141 -57l204 204l150 -149v369h-369l149 -150l-204 -204z" />
    <glyph glyph-name="liuliangzhichi" unicode="&#xe637;" horiz-adv-x="1243" 
d="M1217 330h-256q-11 -3 -20 2.5t-12 15.5l-39 123l-121 -568q-2 -30 -18 -30h-44q-10 -3 -19 2.5t-12 15.5l-150 740l-113 -535q-3 -10 -13 -16.5t-20 -4.5h-41q-10 -3 -19.5 2.5t-12.5 15.5l-76 237h-205q-11 0 -18.5 7.5t-7.5 18.5v51q0 11 7.5 18.5t18.5 7.5l255 1
q28 1 32 -15l40 -123l111 581q5 17 23 17l55 1q10 3 19 -2.5t12 -15.5l149 -735l110 528q3 11 10.5 17.5t16.5 3.5l44 1q11 3 20 -2.5t12 -15.5l76 -241h206q10 0 18 -7.5t8 -18.5v-51q0 -11 -8 -18.5t-18 -7.5v0zM1217 330z" />
    <glyph glyph-name="weixin2" unicode="&#xe638;" horiz-adv-x="1220" 
d="M1068 -17l33 -111l-119 67q-86 -22 -129 -22q-101 0 -185.5 43t-133 117.5t-48.5 162t48.5 162t133 117.5t185.5 43q96 0 180.5 -43t135 -118t50.5 -162q0 -71 -40.5 -136.5t-110.5 -119.5v0zM734 384q-16 0 -29.5 -14t-13.5 -30.5t13.5 -30.5t29.5 -14q23 0 38.5 13.5
t15.5 31t-15.5 31t-38.5 13.5zM971 384q-16 0 -29.5 -14t-13.5 -30.5t13.5 -30.5t29.5 -14q24 0 39 13.5t15 31t-15 31t-39 13.5zM459 234q0 -46 13 -93q-22 -2 -40 -2q-16 0 -30.5 1t-32 4t-27 4.5t-32 6.5t-30.5 6l-150 -78l43 134q-173 125 -173 301q0 104 58 191
t157.5 137t216.5 50q159 0 283 -89t152 -223q-23 2 -42 2q-100 0 -184.5 -47t-133 -128t-48.5 -177zM291 707q-25 0 -45 -16t-20 -40t20 -39.5t45 -15.5t39.5 15t14.5 40t-14.5 40.5t-39.5 15.5zM593 707q-25 0 -44.5 -16t-19.5 -40t19.5 -39.5t44.5 -15.5t39.5 15t14.5 40
t-14.5 40.5t-39.5 15.5z" />
    <glyph glyph-name="weixin1" unicode="&#xe639;" 
d="M645 703v1h-1zM512 896q-29 0 -58 -3q-68 -8 -132 -34q345 -341 354 -353v363q-14 5 -31 9q-66 18 -133 18v0v0zM645 703l-1 1h1v-1zM830 519l1 1h-1v-1zM878 748q-20 20 -43 38q-55 43 -118 70q2 -484 0 -499l258 257q-7 14 -16 28q-34 59 -81 106v0v0zM830 519v1h1z
M832 252v1l-1 -1h1zM987 573q-342 -344 -355 -353h365q5 14 9 31q18 65 18 132q0 29 -3 58q-8 68 -34 132v0v0zM832 252h-1l1 1v-1zM644 65h-2l1 -1zM480 180l258 -257q14 7 29 15q58 34 106 81q19 20 38 43q43 55 70 118q3 0 -49.5 -0.5t-123 -0.5t-144.5 -0.5t-127 0
t-57 1.5v0v0zM644 65l-1 -1l-1 1h2zM379 64h1l-1 1v-1zM348 262v-363q15 -5 32 -9q65 -18 132 -18q28 0 58 3q69 8 133 34l-19 19q-19 19 -50 49t-68 67t-74.5 74t-69 68.5t-52 52.5t-22.5 23v0v0zM379 64v1l1 -1h-1zM194 251v2l-1 -1zM50 157q7 -14 16 -29q33 -58 81 -106
q19 -19 43 -38q55 -43 118 -70q0 -2 0 50t-0.5 122.5t-0.5 144v126.5t1 57zM194 251l-1 1l1 1v-2zM193 517v-1l1 1h-1zM18 517q-18 -66 -18 -132q0 -29 3 -58q8 -69 34 -132q342 344 355 353h-365q-5 -14 -9 -31v0v0v0zM193 517h1l-1 -1v1zM379 702h-1h2h-1zM255 829
q-59 -33 -106 -80q-19 -20 -39 -44q-43 -54 -70 -117h502l-258 257q-16 -8 -29 -16v0v0zM379 702h1h-2h1z" />
    <glyph glyph-name="chaxun" unicode="&#xe608;" 
d="M166.5 695.5q-68.5 -71.5 -91.5 -166t3.5 -188t98.5 -162t166 -92t187.5 3.5t162.5 98.5t92 166t-4 188t-98.5 162t-166 92t-188 -3.5t-162 -98.5zM598 280.5q-67 -69.5 -163.5 -71.5t-166.5 65t-72 164t65 166.5t164 71.5t167 -65t71.5 -164t-65.5 -166.5zM613 153
l190 -182q27 -27 66 -26t65.5 28.5t26 66.5t-28.5 65l-190 182z" />
    <glyph glyph-name="shuaxin2" unicode="&#xe63a;" 
d="M607 710q0 -33 -23.5 -56.5t-56.5 -23.5t-56.5 23.5t-23.5 56.5t23.5 56.5t56.5 23.5t56.5 -23.5t23.5 -56.5zM527 118q-29 0 -49.5 -20.5t-20.5 -49.5t20.5 -49.5t49.5 -20.5t49.5 20.5t20.5 49.5t-20.5 49.5t-49.5 20.5zM858 329q-21 0 -35.5 14.5t-14.5 35.5
t14.5 35.5t35.5 14.5t35.5 -14.5t14.5 -35.5t-14.5 -35.5t-35.5 -14.5zM276 379q0 33 -23.5 56.5t-56.5 23.5t-56.5 -23.5t-23.5 -56.5t23.5 -56.5t56.5 -23.5t56.5 23.5t23.5 56.5zM349.5 669.5q23.5 -23.5 23.5 -56.5t-23.5 -56.5t-56.5 -23.5t-56.5 23.5t-23.5 56.5
t23.5 56.5t56.5 23.5t56.5 -23.5zM718.5 187.5q-17.5 -17.5 -17.5 -42.5t17.5 -42.5t42.5 -17.5t42.5 17.5t17.5 42.5t-17.5 42.5t-42.5 17.5t-42.5 -17.5zM789.5 585q-11.5 -12 -28 -12t-28.5 12t-12 28.5t12 28t28.5 11.5t28 -11.5t11.5 -28t-11.5 -28.5zM349.5 201.5
q-23.5 23.5 -56.5 23.5t-56.5 -23.5t-23.5 -56.5t23.5 -56.5t56.5 -23.5t56.5 23.5t23.5 56.5t-23.5 56.5z" />
    <glyph glyph-name="shangyizhang" unicode="&#xe61d;" 
d="M381 379l402 310v-620zM241 688h126v-618h-126v618z" />
    <glyph glyph-name="xiayizhang" unicode="&#xe61e;" 
d="M643 379l-402 -310v620zM783 70h-126v618h126v-618z" />
    <glyph glyph-name="xujicanshupeizhi" unicode="&#xe609;" 
d="M64 752v-736h896v736h-896zM800 688h32v-32h-32v32zM736 688h32v-32h-32v32zM896 80h-768v512h768v-512zM896 656h-32v32h32v-32zM391 432l1 1l74 -73l-163 -162q-14 -15 -14 -35.5t14.5 -35t35 -14.5t34.5 14l163 163l18 -19l-1 -1q-10 -10 -10 -24.5t10 -24.5l99 -99
q10 -10 24.5 -10t24.5 10l25 25q10 10 10 24.5t-10 24.5l-99 99q-10 10 -24.5 10t-24.5 -10l-1 -1l-19 18l26 26l4 4q29 -10 60.5 -3t54.5 30t30 54.5t-3 60.5l-87 -88l-71 71l88 88q-29 10 -61 3t-55 -30t-30 -55t4 -61l-4 -4l-26 -26l-73 74l1 1v51l-102 51l-25 -25
l51 -102h51zM352 144h-32v32h32v-32z" />
    <glyph glyph-name="password" unicode="&#xe611;" 
d="M672 832q-119 0 -203.5 -84.5t-84.5 -203.5q0 -42 15 -89l-335 -391v-72q0 -23 16.5 -39.5t39.5 -16.5h72v64h128v128h128v128h64l31 31q63 -31 129 -31q119 0 203.5 84.5t84.5 203.5t-84.5 203.5t-203.5 84.5zM672 384q-66 0 -113 47t-47 113t47 113t113 47t113 -47
t47 -113t-47 -113t-113 -47v0z" />
    <glyph glyph-name="yiqueren" unicode="&#xe627;" 
d="M622 719q5 -10 12.5 -16.5t16.5 -6.5v0h146v14q0 6 -2 14t-10.5 19.5t-23.5 28.5t-42 40q-25 22 -41.5 35.5t-27.5 20.5t-19.5 9.5t-16.5 2.5h-2v-123q0 -7 2.5 -17.5t7.5 -20.5v0zM967 191q-16 40 -46 69.5t-69.5 46.5t-85.5 17q-44 0 -83.5 -17t-69.5 -46.5t-47.5 -69
t-17.5 -85t17.5 -85.5t47.5 -69.5t69.5 -46.5t83.5 -17q46 0 85.5 17t69.5 46.5t46.5 69.5t16.5 85.5t-17 84.5v0zM744 4l-95 110l27 27l68 -53l127 112l27 -27l-154 -169v0zM484 136v0v0v0v0zM496 23q-13 40 -13 84v15q0 7 1 14h-245q-25 0 -43.5 18.5t-18.5 44t18.5 43.5
t43.5 18h289q37 58 98.5 92.5t135.5 34.5h18q9 0 17 -2v247h-145q-26 0 -46 12t-33 30.5t-19 40t-6 41.5v124h-61v0h-434v-128v-676v-151h504l-3 2q-18 14 -34 43t-24 53v0zM195 490q19 18 44 18h372q26 0 43.5 -18t17.5 -44t-17.5 -44t-43.5 -18h-372q-25 1 -43.5 18.5
t-18.5 43.5t18 44v0z" />
    <glyph glyph-name="guanbi" unicode="&#xe625;" 
d="M812 144l-240 240l240 240q13 13 13 30.5t-12.5 30t-30 12.5t-30.5 -13l-240 -240l-240 240q-13 13 -30.5 13t-30 -12.5t-12.5 -30t13 -30.5l240 -240l-240 -240q-13 -13 -13 -30.5t12.5 -30t30 -12.5t30.5 13l240 240l240 -240q13 -13 30.5 -13t30 12.5t12.5 30
t-13 30.5z" />
    <glyph glyph-name="logout" unicode="&#xe61a;" 
d="M463 157h-191q-15 0 -27 11t-12 28v188v188q0 16 11.5 27.5t27.5 11.5h191q16 0 27.5 11.5t11.5 27.5v56q0 15 -11.5 26.5t-27.5 11.5h-324q-15 0 -26 -11.5t-11 -26.5v-322v-322q0 -15 11.5 -26.5t27.5 -11.5h324q16 0 27.5 11t11.5 27v58q-2 15 -13.5 26t-27.5 11z
M909 415l-239 239q-19 18 -42.5 8.5t-23.5 -34.5v-99q0 -15 -11 -27t-28 -12h-203q-15 0 -26.5 -11t-11.5 -27v-68v-68q0 -15 11 -26.5t27 -11.5h203q16 0 27.5 -11.5t11.5 -27.5v-99q0 -26 23.5 -35.5t42.5 9.5l239 239q13 13 13 31q0 21 -13 31z" />
    <glyph glyph-name="nenghaoguanli" unicode="&#xe60a;" 
d="M959 58h-863v712q0 8 -6 14t-14.5 6t-14.5 -6t-6 -14v-733q0 -8 6 -14t14 -6h884q8 0 14 6t6 14.5t-6 14.5t-14 6zM835 314h84v-199h-84v199zM112 80q3 -1 6 -1q10 0 14 9l44 101v-74h82v263l6 14l77 -61v-216h80v209l91 90v-299h75v322l84 -41v-281h80v304l210 262
q10 11 -2 21t-22 -2l-186 -232v134h-80v-172l-84 42v40h-75v-55l-91 -89v351h-80v-349l-74 59q-6 5 -13 3t-10 -8h-68v-158l-72 -165q-2 -6 0 -12t8 -9z" />
    <glyph glyph-name="skin" unicode="&#xe621;" horiz-adv-x="1025" 
d="M304 767h76q3 -2 9.5 -4.5t9.5 -4.5q6 -4 17.5 -18t33.5 -23q16 -7 45 -12q2 0 7.5 -0.5t7.5 -0.5q8 -1 23 2q44 9 69 27q3 3 9.5 11.5t10.5 11.5q3 2 8 4.5l7 3.5q1 1 4.5 1.5t5.5 1.5h23h17h20t16.5 -1t14.5 -4q7 -4 25 -21q22 -20 33 -31q12 -12 49 -47t57 -54
q6 -6 18 -17t17 -16l7 -7t7 -7.5t5 -7t5 -9.5q0 -2 1 -6q2 -17 -12 -34q-74 -71 -89 -85q-26 -28 -43 -31q-12 -2 -23.5 2t-16 7.5t-13.5 12.5l-12 12q-1 0 -1 -1v-301q-1 -42 -1 -85q-3 -16 -16 -25q-5 -4 -11 -6t-16 -3t-15.5 -1h-20h-17.5h-180h-122q-48 0 -59 7
q-13 8 -18 21q-3 7 -3 36v57v301h-1q-4 -3 -12 -11t-14.5 -13t-14.5 -9q-20 -8 -42 7q-2 2 -17 16q-26 24 -40 37l-19 19q-3 2 -22 21q-2 1 -6.5 5t-7 6.5t-5.5 6.5t-5 8q-6 15 -5 22q4 19 29 42q4 3 11.5 10t10.5 10l1 1l1 1l1 1l1 1l1 1l1 1l1 1l1 1l1 1l1 1l1 1l1 1l1 1
l1 1l1 1h1l1 1l1 1l1 1l1 1l1 1l1 1l1 1l1 1l1 1l1 1l1 1l1 1l1 1l1 1l1 1l1 1l1 1l1 1l1 1h1l1 1l1 1l1 1l1 1l1 1l1 1l1 1l1 1l1 1l1 1l1 1l1 1l1 1l1 1l1 1l1 1l1 1l1 1l1 1l1 1h1l1 1l1 1l1 1l1 1l1 1l1 1l1 1l1 1l1 1l1 1l1 1l1 1l1 1l1 1l1 1l1 1l1 1l1 1l1 1l1 1l1 1
h1l1 1l1 1l1 1l1 1l1 1l1 1l1 1l1 1l1 1l1 1l1 1l1 1l1 1l1 1l1 1l1 1l1 1l1 1l1 1h1l1 1l1 1l1 1l1 1l1 1l1 1l1 1l1 1l1 1l1 1l1 1l1 1l1 1l1 1l1 1l1 1l1 1l1 1l1 1l1 1h1l1 1l1 1l1 1l1 1l2 2q15 14 23 22l5 5t6 5.5l6 4.5t7 4.5t8 2.5l10 2v1z" />
    <glyph glyph-name="sanjiaoxing" unicode="&#xe624;" 
d="M112 104l400 560l400 -560h-800z" />
    <glyph glyph-name="renyuanpaiban" unicode="&#xe60b;" horiz-adv-x="1027" 
d="M413 421l-13 -7l-2 -2l-9 -5l-5 -4l-4 -3l-5 -4l-4 -3l-7 -6l-2 -2l-16 -16h-5l-4 2l-3 2l-4 3l-2 2l-9 5h-7l-2 -7l-5 -9l-2 -7l-3 -5l-2 -2l-2 -4l-2 -3l-3 -4l-4 -5l-3 -4l-20 -21l-2 -4l-3 -3l-1 -1l-9 -18l-2 -7l-3 -9v-12h-4v12l-2 9l-3 7l-9 17l-2 3l-2 4l-21 21
l-2 4l-7 7l-2 5l-3 2l-2 4l-2 3l-5 9l-2 7l-2 4l-3 7l-2 2h-2l-3 -2l-13 -7l-2 -2l-5 -3l-4 -4l-5 -2l-30 -30l-2 -5l-4 -4l-3 -5l-2 -2l-5 -9l-2 -2l-7 -14l-2 -7l-2 -4l-5 -14l-4 -18l-3 -11l-2 -37v-56l2 -14l3 -7l2 -2l2 -5l5 -4l9 -5l7 -2l9 -2l13 -3l32 -2h5v132h4
v-131h122v-5l3 -13l2 -7l5 -9l9 -9l4 -3l3 -2l4 -2l7 -2l18 -5l16 -2l18 -3h32l2 68l2 -68h236l3 66l2 -66h36l18 3l16 2l19 5l13 6l11 12l3 4l2 7l2 12v11h111l3 129l2 -129h8l30 2l16 2l13 5l5 2l11 12l2 7v97l-2 18l-4 19l-7 20l-3 5l-2 6l-4 9l-3 3l-4 9l-3 2l-2 4l-2 3
l-2 4l-10 9l-2 5l-14 14l-4 2l-9 9l-5 2l-2 3l-4 2l-3 2l-3 1l-5 3h-7l-2 -5l-2 -7l-12 -22l-4 -5l-3 -4l-6 -7l-3 -4l-20 -21l-2 -5l-3 -2l-7 -13l-2 -7l-2 -9l-2 -14l-3 -4v13l-2 9l-5 14l-4 9l-2 2l-3 5l-4 4l-3 5l-20 20l-2 5l-5 5l-2 4l-3 2l-9 18l-2 7l-5 9h-2l-4 -2
l-3 -3l-13 -6h-5l-11 11l-5 2l-9 9l-4 3l-5 4l-4 3l-2 2l-5 2l-2 2l-9 5l-2 2l-9 5h-3l-2 -5l-2 -6l-3 -5l-2 -7l-9 -18l-2 -2l-5 -9l-4 -5l-3 -4l-7 -7l-2 -4l-25 -25l-2 -5l-5 -5l-2 -4l-2 -2l-5 -9l-2 -3l-3 -6l-2 -5l-2 -9l-2 -7l-3 -11v-16h-4v14l-2 11l-5 18l-2 5
l-3 7l-2 4l-2 2l-2 5l-3 2l-2 5l-7 6l-2 5l-25 25l-3 5l-4 4l-2 5l-5 4l-5 9l-2 2l-9 18l-2 7l-3 5l-2 7l-2 4h-2l-5 -2l-1 -1v0zM223 385v-19l2 -2h32l2 2v19l-2 2h-32zM765 382v-13l5 -5h32l2 2v19l-2 2h-35zM495 425l-2 -2v-23l4 -4h41l5 4v23l-5 5h-38zM234 360l-2 -5
l-9 -9l-2 -5v-13l2 -14l2 -2l2 -5l5 -4l2 -5l5 -13h2l2 2l3 4l2 7l2 3l3 4l2 2l2 5l2 2l3 14v13l-3 5l-2 2l-3 3l-4 4l-2 5l-3 2h-9l-2 -2v0v0zM779 360l-5 -5l-2 -4l-7 -7v-21l2 -9l3 -4l4 -5l7 -13l2 -7h3l2 2l2 7l5 9l2 2l2 5l3 2l2 4l2 14v9l-2 7l-12 11l-2 5h-9z
M511 391l-5 -4l-2 -5l-11 -11l-3 -5v-20l3 -16l2 -4l5 -5l2 -4l2 -3l9 -18l3 -6h4l2 6l9 18l3 3l2 4l5 5l2 4l2 16v20l-2 5l-12 11l-2 5l-7 7h-9l-2 -3v0zM209 605l-7 -3l-6 -2l-5 -2l-2 -2l-5 -3l-2 -2l-4 -2l-7 -7l-3 -5l-4 -4l-9 -18l-5 -14l-2 -11v-48l2 -9l2 -7l10 -18
l2 -2l2 -4l2 -3l3 -4l20 -21l5 -2l2 -2l18 -9l7 -3l11 -2h14l13 3l5 2l7 2l13 7l5 5l4 2l16 16l2 5l3 2l2 4l2 3l2 4l7 13l2 7l3 9v50l-3 11l-2 10l-2 6l-7 14l-2 2l-3 5l-13 13l-5 3l-2 2l-5 2l-4 2l-4 2l-7 3l-12 2h-45l-9 -2v0v0zM751 605l-4 -3l-7 -2l-9 -5l-2 -2l-5 -2
l-13 -14l-3 -4l-2 -3l-7 -13l-4 -14l-3 -11l-2 -21v-17l2 -14l3 -9l2 -7l7 -13l2 -3l2 -4l3 -2l2 -5l23 -23l4 -2l3 -2l17 -9l7 -3l12 -2h13l12 2l13 5l9 4l3 3l4 2l5 5l4 2l12 11l2 5l4 4l3 5l2 2l7 14l4 13l3 12v43l-3 11l-2 9l-2 7l-9 18l-3 2l-2 5l-11 11l-9 5l-3 2
l-4 2l-7 3l-4 2l-12 2h-45l-11 -2h-1v0zM484 725l-9 -2l-14 -5l-14 -7l-2 -2l-4 -2l-3 -2l-4 -3l-14 -13l-2 -5l-5 -5l-4 -8l-2 -3l-3 -4l-2 -7l-2 -5l-3 -6l-4 -19l-2 -13v-52l2 -12l7 -20l9 -18l2 -3l2 -4l3 -2l2 -5l5 -4l2 -5l18 -18l5 -2l4 -5l5 -2l4 -5l23 -11l6 -3
l10 -2h36l11 2l7 3l22 11l3 2l4 3l5 4l4 3l18 18l3 4l4 5l3 4l2 3l4 9l3 2l4 9l3 7l2 4l2 7l2 9l3 12v52l-3 13l-2 12l-2 6l-2 10l-12 22l-2 2l-2 5l-23 23l-9 4l-3 3l-4 2l-7 2l-4 2l-19 5l-15 2h-37l-16 -2h1z" />
    <glyph glyph-name="shaixuan" unicode="&#xe659;" 
d="M608.5 -64q-13.5 0 -23 9.5t-9.5 22.5v480q0 12 9 21l208 235h-563l210 -235q8 -9 8 -21v-289l51 -41q10 -8 11.5 -21.5t-7 -23.5t-21.5 -11.5t-24 6.5l-62 51q-12 10 -12 25v292l-249 279q-14 15 -5.5 34t29.5 19h706q21 0 29.5 -19t-5.5 -34l-249 -279v-468
q0 -13 -9 -22.5t-22.5 -9.5z" />
    <glyph glyph-name="fxyou" unicode="&#xe63b;" 
d="M745 384q0 -17 -12 -29l-384 -384q-12 -12 -29 -12t-29 12t-12 29t12 29l355 355l-355 355q-12 12 -12 29t12 29t29 12t29 -12l384 -384q12 -12 12 -29z" />
    <glyph glyph-name="fxxia" unicode="&#xe63c;" 
d="M512 151q-17 0 -29 12l-384 384q-12 12 -12 29t12 29t29 12t29 -12l355 -355l355 355q12 12 29 12t29 -12t12 -29t-12 -29l-384 -384q-12 -12 -29 -12z" />
    <glyph glyph-name="fxshang" unicode="&#xe63d;" 
d="M512 617q17 0 29 -12l384 -384q12 -12 12 -29t-12 -29t-29 -12t-29 12l-355 355l-355 -355q-12 -12 -29 -12t-29 12t-12 29t12 29l384 384q12 12 29 12z" />
    <glyph glyph-name="fxzuo" unicode="&#xe63e;" 
d="M279 384q0 17 12 29l384 384q12 12 29 12t29 -12t12 -29t-12 -29l-355 -355l355 -355q12 -12 12 -29t-12 -29t-29 -12t-29 12l-384 384q-12 12 -12 29z" />
    <glyph glyph-name="wancheng" unicode="&#xe628;" 
d="M431 142l-186 185l68 68l118 -118l303 302l69 -68zM512 845q-94 0 -179 -36.5t-147 -98.5t-98.5 -147t-36.5 -179t36.5 -179t98.5 -147t147 -98.5t179 -36.5t179 36.5t147 98.5t98.5 147t36.5 179t-36.5 179t-98.5 147t-147 98.5t-179 36.5v0z" />
    <glyph glyph-name="jia" unicode="&#xe620;" 
d="M506 832q-91 -1 -173.5 -37t-142 -97t-94.5 -144t-34 -174.5t37.5 -174t97 -142t144 -94t174.5 -34t173.5 37t142 97t94.5 144t34 174.5t-37.5 173.5t-97 142t-144 94.5t-174.5 34zM592 127l-156 -2l-1 183l-181 -2l-2 156l181 1l-1 178l155 1l2 -177l179 1l1 -155
l-179 -2z" />
    <glyph glyph-name="xiaoxi" unicode="&#xe62f;" 
d="M512 794q122 0 225.5 -49t163.5 -133.5t60 -184.5t-60 -184.5t-163.5 -133.5t-225.5 -49l-59 3q-7 -6 -20 -15t-50 -28.5t-70 -27.5q-30 -7 -64.5 -11.5t-63.5 -5.5t-53 -1t-38 0.5t-13 0.5l70 62q94 88 75 108q-40 41 -62 66t-49 62.5t-39 75t-12 78.5q0 100 60 184
t163.5 133.5t224.5 49.5v0v0zM512 794z" />
    <glyph glyph-name="quxiantu" unicode="&#xe622;" 
d="M107 768q19 0 23 -5q2 -4 3 -10.5t0.5 -18.5t-0.5 -13v-106v-407v-97q0 -3 -0.5 -10t-0.5 -11t1.5 -8t4.5 -6t11.5 -2t21.5 0.5t14 0.5h125h466h168q8 -2 11.5 -12.5t-2.5 -18.5q-2 -3 -6 -4.5t-10 -2t-11 -0.5t-12 0.5t-10 0.5h-142h-488h-126q-4 0 -12.5 -0.5
t-14.5 -0.5t-12 1t-9 3q-4 3 -5.5 12t-2 21.5t-0.5 24t0.5 25.5t0.5 19v300v238q0 3 -1 25t0 35.5t5 18.5q0 1 10 8zM795 712q22 1 26 -2q11 -9 -4 -82q-1 -4 -1.5 -17.5t-4 -19t-13.5 -5.5q-2 1 -8 9t-10 9q-8 2 -18 -7t-20.5 -25.5t-11.5 -17.5q-73 -85 -84 -100
q-2 -2 -7.5 -9t-8.5 -10.5t-8 -9t-10.5 -9t-11.5 -4.5q-19 -5 -41 17q-15 15 -46.5 43.5t-46.5 43.5q-1 1 -6 6.5t-9 9.5t-9.5 8.5t-10.5 6.5t-9 1q-17 -2 -56 -48q-2 -2 -5.5 -4t-6 -3.5t-5.5 -3.5q-4 -5 -13.5 -14.5t-13.5 -14.5q-2 -1 -6.5 -3.5t-7.5 -3.5
q-9 -8 -27.5 -26t-28.5 -26q-3 -2 -12 -10.5t-15.5 -13t-15 -8t-16 0.5t-13.5 16q-6 16 -0.5 27.5t22.5 24t19 13.5q24 25 74 68.5t72 65.5l9 9t12.5 12t12.5 10t16 7.5t15 0.5q7 -2 14 -6t10.5 -7.5t10.5 -11t9 -9.5q11 -11 36.5 -33.5t37.5 -35.5q34 -35 49 -29q3 1 7 6
t8 11.5t6 8.5q6 8 27 33t31 40q3 4 15.5 17t22.5 25t10 18q-6 14 -12 20q-2 2 -5.5 4t-6.5 4.5t-3 5.5q-5 8 -1 12t6.5 4.5t10 0.5h9.5l20 6q8 1 25 2t26 2zM803 497q37 1 45 -18q3 -7 4 -18t1 -20t-0.5 -23.5t-0.5 -22.5v-177q0 -5 0.5 -22.5t0.5 -26.5t-2.5 -20.5
t-7.5 -17.5q-3 -4 -9 -7t-15.5 -3.5t-15.5 -1t-18.5 0t-16.5 0.5t-10.5 -0.5t-10.5 -0.5q-1 0 -12 6q-15 9 -17.5 13.5t-3 15.5t0 27t0.5 19v195q0 3 -0.5 27.5t0.5 39t5 20.5q1 3 3.5 5t5.5 3.5t5.5 2.5t7 2t7.5 1t8.5 0.5t8.5 0.5h9h8h10.5h9.5zM398 424q23 3 56 0.5
t40 -16.5q3 -6 5 -16.5t2 -17v-23v-19.5v-128v-16.5v-18.5t-1 -15t-4 -15q-6 -15 -28 -20q-6 0 -18 0.5t-18 0.5q-2 0 -12.5 -0.5t-14 0t-11 1t-12 2t-8.5 4.5q-6 5 -10 16.5t-4.5 29t-0.5 32.5t0.5 35t0.5 28t-0.5 36t-0.5 45.5t2.5 37.5t7.5 27q4 5 15 7t14 3zM562 352
q4 0 21.5 0.5t27 0t22.5 -1.5t21 -4.5t12 -10.5q10 -16 10 -68q0 -9 1 -32.5t0.5 -37.5t-2.5 -31.5t-8 -28.5t-16 -16q-5 -2 -42 -2q-4 0 -15.5 -0.5t-15.5 0t-12 1t-12 2.5t-9 5t-8 8q-3 3 -3.5 16.5t-0.5 27t0.5 30.5t0.5 21l-1 32t0 51.5t4 24.5q3 4 6.5 6t9.5 3.5t9 3.5
zM216 267h18h18.5h17t17 -1.5t14.5 -3.5t13 -5.5t9 -9.5q4 -5 7 -19q-1 -12 -1 -37v-37q-7 -23 -24 -32q-4 -2 -44 -3t-45 0q-7 2 -16 8.5t-11 12.5q-3 6 -3 21t0.5 35t0.5 25q0 25 2.5 29t7 7t10.5 5.5t9 4.5z" />
    <glyph glyph-name="guanyu" unicode="&#xe63f;" 
d="M505 873q-99 -2 -189 -41.5t-154.5 -106t-102 -157.5t-36 -190.5t41 -189.5t106 -154.5t157.5 -102t190.5 -36t189.5 41t154.5 106t102 157.5t36 190.5t-41 189.5t-106 154.5t-157.5 102t-191 36.5v0zM560 710q64 0 64 -62q0 -32 -24.5 -55.5t-64.5 -23.5q-35 0 -52 16.5
t-16 46.5q0 29 24 53.5t69 24.5zM432 79q-64 0 -35 111l39 160q10 36 0 36q-8 0 -35 -11t-45 -24l-17 28q58 49 121.5 79t96.5 30q25 0 30.5 -27.5t-7.5 -74.5l-45 -168q-10 -41 4 -41q9 0 31.5 10.5t44.5 27.5l19 -25q-54 -55 -112 -83t-90 -28v0z" />
    <glyph glyph-name="huancun" unicode="&#xe640;" horiz-adv-x="1025" 
d="M984 584q-39 91 -110 162t-163 110q-94 40 -198.5 40t-199.5 -40q-92 -39 -163 -110t-110 -162q-40 -96 -40 -200t40 -199q39 -92 110 -163t163 -110q95 -40 199 -40q105 0 199 40q92 39 163 110t110 163q40 95 40 199t-40 200zM723 95h-64q10 14 26 117
q-11 -56 -56 -117h-63q10 14 26 117q-12 -56 -56 -117h-64q10 14 26 117q-11 -57 -55 -117h-51q10 14 26 117q-12 -57 -56 -117h-69q-18 10 -27 26t-3.5 37.5t28.5 41.5q37 32 33 120h409q10 -39 26 -160q6 -45 -33 -63zM746 360h-445q-11 0 -15.5 7t0.5 17l52 111
q5 10 16 17.5t22 7.5h96v163q0 11 7.5 19t18.5 8h54q11 0 19 -8t8 -19v-163h91q11 0 22.5 -7.5t16.5 -17.5l52 -111q5 -10 0.5 -17t-15.5 -7z" />
    <glyph glyph-name="shouqi_1" unicode="&#xe65b;" 
d="M2 35h1021v-114h-1021v114v0zM2 35zM342 318h680v-114h-680v114v0zM342 318zM342 545h680v-114h-680v114v0zM342 545zM2 829h1021v-115h-1021v115v0zM2 829zM229 175l-227 228l227 170v-398zM229 175z" />
    <glyph glyph-name="saoyisao" unicode="&#xe641;" 
d="M513 862q-99 0 -188.5 -38.5t-154.5 -103t-103.5 -154.5t-38.5 -188.5t38.5 -188.5t103.5 -155t154.5 -103.5t188.5 -38.5t188.5 38.5t154.5 103.5t103.5 155t38.5 188.5t-38.5 188.5t-103.5 154.5t-154.5 103t-188.5 38.5zM298 570q0 10 6.5 16.5t15.5 6.5h112
q11 0 17.5 -8t4.5 -18q-1 -9 -7.5 -14t-15.5 -5h-77q-5 0 -8.5 -3.5t-3.5 -7.5v-55q0 -9 -5 -15.5t-13 -8.5q-11 -1 -18.5 5.5t-7.5 17.5v89zM432 144h-112q-9 0 -15.5 6.5t-6.5 15.5v90q0 10 7.5 17t18.5 5q8 -1 13 -8t5 -15v-55q0 -5 3.5 -8t8.5 -3h77q9 0 15.5 -5.5
t7.5 -13.5q2 -11 -4.5 -18.5t-17.5 -7.5zM747 166q0 -9 -6.5 -15.5t-16.5 -6.5h-112q-10 0 -17 7.5t-5 18.5q1 8 8 13.5t15 5.5h78q4 0 7.5 3t3.5 8v55q0 8 5 15t13 8q11 2 19 -5t8 -17v-90zM724 346h-404q-9 0 -15.5 6.5t-6.5 16t6.5 16t15.5 6.5h404q10 0 16.5 -6.5
t6.5 -16t-6.5 -16t-16.5 -6.5zM747 481q0 -11 -8 -17.5t-19 -5.5q-8 2 -13 8.5t-5 15.5v55q0 4 -3.5 7.5t-7.5 3.5h-79q-10 0 -17 8t-5 18q1 8 8 13.5t15 5.5h111q10 0 16.5 -6.5t6.5 -16.5v-89z" />
    <glyph glyph-name="xinxi" unicode="&#xe642;" 
d="M504 880q-102 0 -195.5 -40t-160.5 -107.5t-107 -161t-40 -196t40 -195.5t107 -160.5t160.5 -107.5t196 -40t195.5 40t160.5 107.5t107.5 160.5t40 195.5t-40 196t-107.5 161t-160.5 107.5t-196 40v0zM583 191q-33 -50 -65 -75.5t-77 -25.5q-32 5 -46 26t-6 46l83 277
q4 12 -8 16q-9 4 -29 -17l-49 -62q-1 4 -1 11t0.5 14t0.5 9q28 42 69.5 72t72.5 30q29 -3 43 -23.5t9 -48.5l-84 -278q-2 -11 8 -15t29 17l51 61q1 -7 0.5 -12t-1 -12.5t-0.5 -9.5v0zM572 553q-25 0 -41.5 16t-16.5 41q0 26 16.5 42t41.5 16t41.5 -16.5t16.5 -41.5
t-16.5 -41t-41.5 -16v0zM572 553z" />
    <glyph glyph-name="shezhi2" unicode="&#xe643;" 
d="M344 384q0 -34 13 -64.5t36.5 -54.5t54.5 -36.5t64.5 -12.5t64 12.5t54 36.5t36.5 54.5t13 64t-13 64.5t-36.5 54.5t-54 36.5t-64 13t-64.5 -13t-54.5 -36.5t-36.5 -54.5t-13 -64v0zM512 -128q139 0 257 68.5t186.5 186.5t68.5 257t-68.5 257t-186.5 186.5t-257 68.5
t-257 -68.5t-186.5 -186.5t-68.5 -257t68.5 -257t186.5 -186.5t257 -68.5zM152 477q14 53 42 99q19 -9 41 -9q39 0 66.5 27.5t27.5 66.5q0 22 -9 41q49 29 105 43q4 -35 30.5 -59.5t62.5 -24.5t62.5 23.5t30.5 57.5q54 -15 101 -44q-16 -24 -16 -53q0 -39 27.5 -66.5
t66.5 -27.5q26 0 47 13q23 -41 35 -87q-35 -4 -58.5 -30.5t-23.5 -62.5v0v0q0 -36 23.5 -62.5t58.5 -31.5q-13 -49 -38 -93q-21 11 -44 11q-39 0 -66.5 -28t-27.5 -67v-1v-2q0 -23 10 -43q-44 -28 -95 -42q-4 35 -30.5 58t-62.5 23t-62.5 -24t-30.5 -60q-52 13 -99 40
q14 22 14 48q0 39 -28 66.5t-67 27.5q-27 0 -50 -14q-29 47 -43 100q35 5 59 31.5t24 62.5t-24 62.5t-59 30.5z" />
    <glyph glyph-name="fyixuanze-block" unicode="&#xe644;" 
d="M896 896h-768q-53 0 -90.5 -37.5t-37.5 -90.5v-768q0 -53 37.5 -90.5t90.5 -37.5h768q53 0 90.5 37.5t37.5 90.5v768q0 53 -37.5 90.5t-90.5 37.5zM973 0q0 -32 -22.5 -54.5t-54.5 -22.5h-768q-32 0 -54.5 22.5t-22.5 54.5v768q0 32 22.5 54.5t54.5 22.5h768
q32 0 54.5 -22.5t22.5 -54.5v-768zM429 19q113 212 242 395q45 62 101 128.5t90 101.5l34 34l-26 71q-17 -11 -44.5 -31t-99 -78.5t-124.5 -113.5q-54 -55 -108 -123.5t-80.5 -108t-26.5 -40.5l-184 167l-75 -77z" />
    <glyph glyph-name="fxuanze-none" unicode="&#xe645;" 
d="M896 896h-768q-53 0 -90.5 -37.5t-37.5 -90.5v-768q0 -53 37.5 -90.5t90.5 -37.5h768q53 0 90.5 37.5t37.5 90.5v768q0 53 -37.5 90.5t-90.5 37.5zM973 0q0 -32 -22.5 -54.5t-54.5 -22.5h-768q-32 0 -54.5 22.5t-22.5 54.5v768q0 32 22.5 54.5t54.5 22.5h768
q32 0 54.5 -22.5t22.5 -54.5v-768z" />
    <glyph glyph-name="zichan" unicode="&#xe646;" 
d="M512 870q-99 0 -188 -38.5t-153 -103.5t-101.5 -155t-37.5 -189t38.5 -188t103 -153t153 -101.5t185.5 -37.5q99 0 188 38.5t153 103t101.5 153t37.5 185.5q0 99 -37.5 189t-101.5 155t-153 103.5t-188 38.5zM301 141l-77 102l70 -25l103 76zM301 301l-77 102l70 -25
l103 76zM301 480l-77 102l70 -25l103 77zM800 147h-378v32h378v-32zM800 314h-378v32h378v-32zM800 493h-378v32h378v-32z" />
    <glyph glyph-name="message_d" unicode="&#xe647;" 
d="M915 26h-806q-34 0 -58.5 24.5t-24.5 58.5v467q0 34 24.5 58.5t58.5 24.5h19q0 19 13 32t32 13h45q14 0 26 -12t12 -26h45q25 0 45 19l38 45q19 19 45 19h173q11 0 22 -5t17 -10l5 -4l45 -45q9 -9 20 -13.5t18 -5.5h7h192q34 0 58.5 -25t24.5 -59v-467q-5 -39 -31.5 -64
t-64.5 -25zM960 576q0 19 -13 32t-32 13h-198q-9 0 -29.5 7.5t-41.5 24.5l-38 45v6h-6h-173q-13 0 -13 -6v0l-45 -45q-16 -17 -38 -24.5t-32 -7.5h-90v0h-38v0h-64q-19 0 -32 -13t-13 -32v-467q0 -19 13 -32t32 -13h813q19 0 31.5 13t12.5 32v467h-6zM512 109
q-97 0 -167 68.5t-70 168.5q0 95 70 162.5t167 67.5t167 -68.5t70 -168.5q0 -95 -70 -162.5t-167 -67.5zM512 538q-82 0 -137 -55.5t-55 -137t55 -136.5t137 -55t137 55t55 136.5t-55 137t-137 55.5zM512 237q-44 0 -76.5 31t-32.5 78q0 46 32 74t77 28q44 0 76.5 -31
t32.5 -78q0 -46 -32 -74t-77 -28zM512 410q-29 0 -46.5 -18t-17.5 -46.5t17.5 -46t46.5 -17.5t46.5 17.5t17.5 46.5q0 25 -18 44.5t-46 19.5zM211 493h-83q-19 0 -19 19v45q0 19 19 19h83q19 0 19 -19v-45q5 -9 -1.5 -14t-17.5 -5z" />
    <glyph glyph-name="message_c" unicode="&#xe648;" 
d="M512 538q-82 0 -137 -55.5t-55 -137t55 -136.5t137 -55t137 55t55 137q0 78 -55.5 135t-136.5 57zM512 237q-44 0 -76.5 31t-32.5 78q0 42 32.5 72t76.5 30t76.5 -31t32.5 -78q0 -42 -32.5 -72t-76.5 -30zM915 666h-192q-25 0 -45 19l-38 45q-13 19 -45 19h-166
q-12 0 -23 -5t-16 -10l-6 -4l-45 -45q-8 -9 -18 -13.5t-15 -5.5h-5h-45q0 14 -13 26t-32 12h-38q-19 0 -32 -12t-13 -26h-19q-39 0 -64.5 -26t-25.5 -64v-467q0 -34 25 -58.5t58 -24.5h813q34 0 58.5 24.5t24.5 58.5v467q5 38 -19.5 64t-63.5 26zM237 512q0 -19 -19 -19h-90
q-19 0 -19 19v45q0 19 19 19h83q19 0 19 -19v-45h7zM512 109q-97 0 -167 68.5t-70 168.5q0 95 70 162.5t167 67.5t167 -68.5t70 -168.5q0 -95 -70 -162.5t-167 -67.5zM448 345.5q0 -26.5 18.5 -45t45.5 -18.5t45.5 18.5t18.5 45t-18.5 45.5t-45.5 19t-45.5 -19t-18.5 -45.5z
" />
    <glyph glyph-name="yuyin_d" unicode="&#xe649;" 
d="M512 870q-81 0 -139.5 -57t-58.5 -135v-198q0 -81 58 -136.5t140 -55.5q81 0 139.5 57.5t58.5 134.5v198q0 81 -58 136.5t-140 55.5zM691 493q0 -72 -53 -122.5t-126 -50.5q-74 0 -126.5 49t-52.5 124v173q0 67 54 119.5t125 52.5q73 0 126 -50.5t53 -121.5v-173zM730 -6
h-154v134q137 24 215.5 131.5t78.5 258.5v4t-3 7.5t-7.5 9.5t-15 7.5t-25.5 3.5q-23 0 -35.5 -8t-14.5 -16l-1 -8q0 -123 -72.5 -208.5t-189.5 -85.5q-81 0 -141.5 40.5t-91 106.5t-30.5 147v4t-3 7.5t-8 9.5t-15.5 7.5t-24.5 3.5h-5t-10.5 -1.5t-13.5 -4.5t-11 -10t-5 -16
q0 -96 34.5 -178t102 -137.5t158.5 -68.5v-134h-141q-21 0 -36 -14t-15 -37q0 -24 13.5 -37.5t37.5 -13.5h429q20 0 35.5 14t15.5 37q0 22 -15 33.5t-36 11.5zM730 -77h-429q-15 0 -23.5 9t-8.5 23.5t8.5 23t23.5 8.5h166v173q-72 7 -130 39.5t-95 81.5t-56.5 108.5
t-19.5 122.5q0 6 6.5 9t13.5 3l6 1q14 0 22 -3.5t9 -6.5l1 -3q0 -31 7 -67t26.5 -80t49 -78.5t81.5 -58t118 -23.5q63 0 114.5 23.5t81.5 58.5t50 78.5t27.5 80t7.5 66.5q0 2 1 5.5t9 8.5t22 5t22 -4.5t9 -9.5l1 -5q-2 -82 -26.5 -147.5t-66 -109.5t-94 -71t-114.5 -37v-173
h180q11 0 21.5 -6t10.5 -19t-10.5 -19.5t-21.5 -6.5z" />
    <glyph glyph-name="yuyin_c" unicode="&#xe64a;" 
d="M512 288q81 0 139.5 57.5t58.5 134.5v198q0 81 -58 136.5t-140 55.5q-81 0 -139.5 -57t-58.5 -135v-198q0 -81 58 -136.5t140 -55.5zM730 -6h-154v134q137 24 215.5 131.5t78.5 258.5v4t-3 7.5t-7.5 9.5t-15 7.5t-25.5 3.5q-23 0 -35.5 -8t-14.5 -16l-1 -8
q0 -123 -72.5 -208.5t-189.5 -85.5q-81 0 -141.5 40.5t-91 106.5t-30.5 147v4t-3 7.5t-8 9.5t-15.5 7.5t-24.5 3.5h-5t-10.5 -1.5t-13.5 -4.5t-11 -10t-5 -16q0 -96 34.5 -178t102 -137.5t158.5 -68.5v-134h-141q-21 0 -36 -14t-15 -37q0 -24 13.5 -37.5t37.5 -13.5h429
q20 0 35.5 14t15.5 37q0 22 -15 33.5t-36 11.5z" />
    <glyph glyph-name="shebei_d" unicode="&#xe64b;" 
d="M864 730h-717v-532h717v532zM858 211h-698v512h698v-512zM90 794v-653h838v653h-838zM915 147h-819v640h819v-640zM339 0h333v58h-333v-58zM352 45h320v-39h-320v39zM1011 51l-19 71h-960l-19 -71v-77h992zM998 -19h-972v70l12 58h941l19 -58v-70zM794 627q-20 0 -36 -16
t-16 -35t13 -32l-141 -141h-19q-19 0 -25 -6l-103 121q7 7 7 26t-16 35t-36 16t-35.5 -14t-15.5 -37q0 -19 7 -26l-128 -128q-7 7 -20 7q-20 0 -35.5 -14t-15.5 -37q0 -20 16 -36t35 -16q21 0 36.5 14.5t15.5 37.5q0 5 -1.5 9.5t-6 12t-5.5 10.5l128 128q6 -7 25.5 -7
t25.5 7l109 -122q-7 -6 -7 -25.5t16 -35.5t35.5 -16t35.5 16t16 35.5t-13 31.5l141 135h19q20 0 35.5 14t15.5 37q-5 20 -22 35.5t-35 15.5zM794 538q-13 0 -20 6l-147 -154q13 -12 13 -32q0 -18 -11.5 -28t-26.5 -10q-19 -5 -29 6.5t-10 31.5q0 4 3.5 13.5t3.5 12.5
l-116 128q-6 -6 -25 -6t-26 6l-141 -141q13 -13 13 -32q0 -15 -13 -26.5t-32 -11.5q-14 0 -26 13t-12 32q0 14 12 26t26 12q20 0 26 -6l141 140q-13 13 -13 26q0 18 11.5 28t26.5 10q19 0 29 -11t10 -27q0 -13 -13 -26l115 -128q13 13 32 13q13 0 19 -6l154 147
q-19 10 -19 32q0 18 11.5 28t26.5 10q20 0 32.5 -9.5t12.5 -28.5q0 -18 -11.5 -28t-26.5 -10z" />
    <glyph glyph-name="shebei_c" unicode="&#xe64c;" 
d="M928 794h-838v-653h838v653zM858 211h-698v512h698v-512zM1011 51l-19 71h-960l-19 -71v-77h992zM672 6h-320v39h320v-39zM230.5 294q20.5 0 36 14.5t15.5 37.5q0 5 -1.5 9.5t-6 12t-5.5 10.5l128 128q6 -7 25.5 -7t25.5 7l109 -122q-7 -6 -7 -25.5t16 -35.5t35.5 -16
t35.5 16t16 35.5t-13 31.5l141 135h19q20 0 35.5 14t15.5 37q0 19 -16 35t-35 16t-35 -16t-16 -35t13 -32l-148 -141h-19q-19 0 -25 -6l-103 121q7 7 7 26t-16 35t-36 16t-35.5 -14t-15.5 -37q0 -19 7 -26l-128 -128q-7 7 -20 7q-20 0 -35.5 -14t-15.5 -37t15.5 -37.5
t36 -14.5z" />
    <glyph glyph-name="home_d" unicode="&#xe64d;" 
d="M845 557q-9 0 -14 -6.5t-5 -12.5v-551q0 -19 -13 -32t-32 -13h-154v288q0 9 -6.5 14.5t-12.5 5.5h-192q-9 0 -14 -7t-5 -13v-294h-147q-20 0 -32.5 13t-12.5 32v557q0 8 -6.5 13.5t-12.5 5.5q-8 0 -20 -5.5t-12 -13.5v-551q0 -39 26.5 -64t69.5 -25h192v313h134v-313h192
q43 0 69.5 25t26.5 64v551q0 19 -19 19zM998 422l-204 192v192q0 13 -7 13q-6 13 -19 13h-96q-9 0 -14 -6.5t-5 -12.5v0v-58l-122 109v6q-6 7 -25 7q-13 0 -13 -7v-6l-474 -442q-10 -10 0 -32q11 -10 32 0l455 436l147 -141l6 -7l90 -83l6 -6l211 -199q11 -10 32 0
q10 10 10 19t-10 13zM749 659l-51 45v83h44v-128h7zM742 467h-140q-5 0 -7 -0.5t-4 -3.5t-2 -9v-140q0 -5 4 -9t9 -4h140q5 0 9 4t4 9v140q0 6 -2 9t-4 3.5t-7 0.5zM723 339q0 -5 -0.5 -5.5t-5.5 -0.5h-90q-5 0 -5.5 0.5t-0.5 5.5v90q0 5 0.5 5.5t5.5 0.5h90q5 0 5.5 -0.5
t0.5 -5.5v-90z" />
    <glyph glyph-name="home_c" unicode="&#xe64e;" 
d="M998 422l-204 192v192q0 13 -7 13q-6 13 -19 13h-96q-9 0 -14 -6.5t-5 -12.5v-58l-122 109v6q-6 7 -25 7q-13 0 -13 -7v-6l-474 -442q-10 -10 0 -32q11 -10 32 0l103 96v-499q0 -39 26.5 -64t69.5 -25h192v313h134v-313h192q43 0 69.5 25t26.5 64v506l109 -103
q10 -10 32 0q11 23 -7 32zM755 307q0 -5 -4 -9t-9 -4h-140q-5 0 -9 4t-4 9v147q0 6 2 9t4 3.5t7 0.5h140q5 0 7 -0.5t4 -3.5t2 -9v-147z" />
    <glyph glyph-name="addimg" unicode="&#xe658;" 
d="M625 -64h-558v884h884v-559q0 -9 -7 -16t-16.5 -7t-16.5 7t-7 16v512h-791v-791h512q10 0 16.5 -7t6.5 -16.5t-6.5 -16t-16.5 -6.5zM519 172q18 32 49.5 51.5t69.5 19.5h55v54q0 41 22 74.5t59 49.5v3v0l-70 209l-241 -312l-65 110l-257 -259h378zM398 608
q0 32 -22.5 54.5t-54 22.5t-54 -22.5t-22.5 -54.5t22.5 -54t54 -22t54 22t22.5 54v0zM934 73h-274q-10 0 -16.5 6.5t-6.5 16.5t6.5 16.5t16.5 6.5h274q10 0 16.5 -6.5t6.5 -16.5t-6.5 -16.5t-16.5 -6.5zM797 -64q-10 0 -16.5 6.5t-6.5 16.5v274q0 10 6.5 16.5t16.5 6.5
t16.5 -6.5t6.5 -16.5v-274q0 -10 -6.5 -16.5t-16.5 -6.5z" />
    <glyph glyph-name="message_b" unicode="&#xe651;" 
d="M864 -46h-704q-57 0 -96.5 40t-39.5 96v461q0 56 40 96t96 40h73q6 0 9 6l27 63q11 26 34 41.5t51 15.5h318q28 0 50.5 -14.5t34.5 -39.5l30 -66q3 -6 9 -6h69q56 0 96 -40t40 -96v-461q-1 -57 -41 -96.5t-96 -39.5zM160 606q-23 0 -38.5 -15.5t-15.5 -38.5v-462
q0 -22 15.5 -37.5t38.5 -15.5h704q22 0 37.5 15.5t15.5 37.5v461q0 23 -15.5 38.5t-37.5 15.5h-70q-27 0 -49.5 15t-34.5 40l-30 65q-3 6 -9 6h-318q-6 0 -9 -6l-27 -63q-10 -26 -33.5 -41.5t-51.5 -15.5h-72v1zM511 77q-104 0 -177.5 73.5t-73.5 177t73.5 177.5t177.5 74
t177.5 -74t73.5 -177.5t-73.5 -177t-177.5 -73.5zM511.5 496q-69.5 0 -119 -49.5t-49.5 -118.5t49.5 -118.5t118.5 -49.5q70 0 119 49t49 118.5t-49 119t-118.5 49.5z" />
    <glyph glyph-name="yuyin_b" unicode="&#xe653;" 
d="M512 136q92 0 157 65.5t65 157.5v289q0 93 -64.5 158.5t-157.5 65.5t-157.5 -65.5t-64.5 -158.5v-289q0 -92 65 -157.5t157 -65.5zM375 648q0 59 39.5 100t97.5 41t97.5 -41t39.5 -100v-289q0 -59 -39.5 -100t-97.5 -41t-97.5 41t-39.5 100v289zM820 334.5
q-17 3.5 -31 -6t-17 -26.5q-1 -6 -3.5 -14.5t-11 -30t-20 -41t-32.5 -42.5t-46.5 -40t-64 -28t-82.5 -11t-82.5 11t-64 28t-46.5 40t-32.5 42.5t-20 41t-11 30t-3.5 14.5q-3 17 -17 26.5t-31 6t-27 -17.5t-6 -30q5 -30 17.5 -61t36.5 -67.5t56 -65t81.5 -50.5t107.5 -28v-41
h-27q-17 0 -29 -11t-12 -27.5t11.5 -27t29.5 -10.5h139q17 0 29 11t12 27.5t-12 27t-29 10.5h-27v41q58 6 107.5 28t81.5 51t56 65t36 67t17 61q4 16 -6 30t-27 17.5z" />
    <glyph glyph-name="home_b" unicode="&#xe650;" 
d="M866 -9h-250q-16 0 -30 12.5t-14 27.5v268h-120v-268q0 -16 -10.5 -28t-25.5 -12h-250q-16 0 -27 12t-11 28v351l-70 2q-28 0 -36 26q-4 11 0 22.5t15 18.5l459 321q21 15 43 0l448 -318q23 -15 14 -42q-4 -12 -13.5 -19t-21.5 -7h-61v-354q0 -16 -12 -28.5t-27 -12.5z
M649 68h179v354q0 26 24 35l-335 238l-341 -239q11 -3 17 -10q12 -12 12 -26v-352h170v263q0 15 12.5 25.5t28.5 10.5h199q15 0 24 -10t9 -26v-263h1z" />
    <glyph glyph-name="shebei_b" unicode="&#xe652;" 
d="M844 870h-667q-58 0 -100.5 -39.5t-42.5 -96.5v-524q0 -58 43 -103.5t100 -45.5h198v-77h-43q-17 0 -29.5 -13t-12.5 -30t12.5 -30t29.5 -13h358q18 0 30 13t12 30t-12 30t-30 13h-50v77h204q57 0 101.5 45.5t44.5 103.5v524q0 57 -43.5 96.5t-102.5 39.5zM177 785h667
q24 0 42.5 -14.5t18.5 -36.5v-393h-786v393q0 22 17.5 36.5t40.5 14.5zM555 -17h-103v77h103v-77zM844 145h-667q-22 0 -40 20t-18 44v47h786v-47q0 -23 -19 -43.5t-42 -20.5z" />
    <glyph glyph-name="message_a" unicode="&#xe655;" 
d="M511.5 496q-69.5 0 -119 -49.5t-49.5 -118.5t49.5 -118.5t118.5 -49.5q70 0 119 49t49 118.5t-49 119t-118.5 49.5zM865 687h-69q-6 0 -9 6l-30 66q-12 25 -34.5 39.5t-50.5 14.5h-318q-28 0 -51 -15.5t-34 -41.5l-27 -63q-3 -6 -9 -6h-73q-56 0 -96 -40t-40 -96v-461
q0 -56 39.5 -96t96.5 -40h704q56 0 96 39.5t41 96.5v461q0 56 -40 96t-96 40zM511 77q-104 0 -177.5 73.5t-73.5 177t73.5 177.5t177.5 74t177.5 -74t73.5 -177.5t-73.5 -177t-177.5 -73.5z" />
    <glyph glyph-name="shebei_a" unicode="&#xe656;" 
d="M844 870h-667q-58 0 -100.5 -39.5t-42.5 -96.5v-524q0 -58 43 -103.5t100 -45.5h198v-77h-43q-17 0 -29.5 -13t-12.5 -30t12.5 -30t29.5 -13h358q18 0 30 13t12 30t-12 30t-30 13h-50v77h204q57 0 101.5 45.5t44.5 103.5v524q0 57 -43.5 96.5t-102.5 39.5zM905 256h-786
v85h786v-85z" />
    <glyph glyph-name="home_a" unicode="&#xe654;" 
d="M866 -9h-250q-16 0 -30 12.5t-14 27.5v268h-120v-268q0 -16 -10.5 -28t-25.5 -12h-250q-16 0 -27 12t-11 28v351l-70 2q-28 0 -36 26q-4 11 0 22.5t15 18.5l459 321q21 15 43 0l448 -318q23 -15 14 -42q-4 -12 -13.5 -19t-21.5 -7h-61v-354q0 -16 -12 -28.5t-27 -12.5z
" />
    <glyph glyph-name="yuyin_a" unicode="&#xe657;" 
d="M512 136q92 0 157 65.5t65 157.5v289q0 93 -64.5 158.5t-157.5 65.5t-157.5 -65.5t-64.5 -158.5v-289q0 -92 65 -157.5t157 -65.5zM820 334.5q-17 3.5 -31 -6t-17 -26.5q-1 -6 -3.5 -14.5t-11 -30t-20 -41t-32.5 -42.5t-46.5 -40t-64 -28t-82.5 -11t-82.5 11t-64 28
t-46.5 40t-32.5 42.5t-20 41t-11 30t-3.5 14.5q-3 17 -17 26.5t-31 6t-27 -17.5t-6 -30q5 -30 17.5 -61t36.5 -67.5t56 -65t81.5 -50.5t107.5 -28v-41h-27q-17 0 -29 -11t-12 -27.5t11.5 -27t29.5 -10.5h139q17 0 29 11t12 27.5t-12 27t-29 10.5h-27v41q58 6 107.5 28
t81.5 51t56 65t36 67t17 61q4 16 -6 30t-27 17.5z" />
    <glyph glyph-name="shouqi_2" unicode="&#xe65c;" 
d="M1022 733h-1021v114h1021v-114zM1022 733zM682 450h-680v114h680v-114zM682 450zM682 223h-680v114h680v-114zM682 223zM1022 -61h-1021v115h1021v-115zM1022 -61zM795 593l227 -228l-227 -170v398zM795 593z" />
  </font>
</defs>
</svg>
